<?xml version="1.0" encoding="UTF-8" standalone="no"?>
<svg
   width="478.75491"
   height="570.18372"
   viewBox="0 0 478.75491 570.18372"
   version="1.1"
   id="svg379"
   sodipodi:docname="image.svg"
   xmlns:inkscape="http://www.inkscape.org/namespaces/inkscape"
   xmlns:sodipodi="http://sodipodi.sourceforge.net/DTD/sodipodi-0.dtd"
   xmlns="http://www.w3.org/2000/svg"
   xmlns:svg="http://www.w3.org/2000/svg">
  <sodipodi:namedview
     id="namedview381"
     pagecolor="#ffffff"
     bordercolor="#000000"
     borderopacity="0.25"
     inkscape:showpageshadow="2"
     inkscape:pageopacity="0.0"
     inkscape:pagecheckerboard="0"
     inkscape:deskcolor="#d1d1d1" />
  <path
     fill="#64a9a4"
     d="m 292.46583,119.25335 c 1.78833,-1.03467 16.59074,-6.28089 19.38651,-7.27022 20.44814,-7.23645 49.36267,-18.306674 71.35928,-17.244451 l 2.04774,0.671111 c 7.25107,2.284444 19.20884,6.31911 25.36984,10.97511 11.18931,8.65156 20.91366,19.24267 31.40647,28.77423 10.20764,9.272 23.90311,17.54933 31.77338,28.84089 4.11415,5.90222 5.39432,19.52 4.81331,26.63023 -2.12326,3.192 -5.27794,7.64711 -7.01297,10.93155 l -4.10615,7.8 c -3.33681,6.84889 -6.65051,18.10223 -8.61386,25.58401 -1.50228,4.91555 -3.61043,12.49689 -6.13525,16.83022 -5.61197,8.65156 -13.39519,13.94134 -22.27645,18.92623 -5.86428,3.18133 -18.62694,9.66489 -23.74586,13.18844 l -0.5588,0.26578 c -5.59865,3.16178 -9.69592,6.36356 -14.7562,10.30933 -6.11481,4.78934 -15.76187,13.80623 -21.38984,17.59823 -6.45773,3.23555 -13.32145,6.13867 -19.88313,9.24711 -3.11648,2.04533 -10.87748,5.04445 -14.66026,7.37245 -6.67449,4.10666 -13.18908,9.24889 -19.91954,13.00533 -4.61343,-5.49511 -11.88137,-20.68356 -15.44916,-27.59556 -1.32726,1.376 -1.33881,1.46578 -2.02465,3.29067 -1.57334,3.62933 -4.21009,9.20889 -5.50004,12.76356 l -1.06696,2.92355 c -1.67106,5.39734 -7.67394,14.70134 -10.10547,20.54667 l -1.13803,0.38045 c -1.73858,1.17777 -1.74214,1.79555 -2.55502,4.08266 -7.60908,44.06312 -13.61018,88.38935 -17.99173,132.8898 -1.14159,10.93689 -4.39133,31.15556 -2.29028,41.11823 -0.53392,1.17688 -0.46108,1.12355 -0.37668,2.43377 l -0.9639,0.97956 c -4.12126,5.76267 -5.70526,7.624 -11.27016,12.34578 l -1.15402,-0.52711 c -2.81532,-3.19911 -4.04308,-9.66223 -5.15357,-13.91378 l -0.0773,-0.66489 v -2.98756 c -4.64985,0.10934 -10.36755,-0.65422 -13.72834,-0.46489 l -0.99588,-0.003 c -0.74448,-2.48445 -2.73537,-24.45423 -3.13425,-28.14667 -2.31782,-21.53334 -4.82131,-43.04623 -7.51048,-64.53601 -2.58167,-19.89778 -5.3961,-39.76534 -8.44329,-59.59734 -0.55347,-3.59822 -3.59621,-18.94667 -3.51803,-20.99556 -0.90439,-0.92178 -1.05897,-0.88533 -2.19433,-1.51289 l -0.90172,-0.32355 c -0.80755,-1.42578 -1.69772,-3.70401 -2.36579,-5.26756 -2.33203,-3.21956 -6.60076,-12.32978 -8.14657,-16.16178 l -1.34414,-3.40533 c -1.5307,-3.52889 -3.15468,-7.56356 -5.01675,-10.88267 -0.86974,-2.28445 -1.05985,-2.736 -2.46973,-4.71911 -0.32427,-1.38845 -1.94914,-4.02134 -2.71849,-5.41067 3.03298,-10.00622 6.12636,-17.90134 8.76755,-28.44267 0.57657,-3.31734 4.65252,-19.70489 3.72237,-21.51823 -0.24875,1.21867 -0.34647,2.85423 -1.09628,3.55734 -2.14991,-1.11111 -4.58588,-4.44267 -6.35378,-5.93867 -13.2184,-11.184 -12.50591,-27.328 -19.24171,-40.21601 1.96069,-2.84622 7.59221,-11.304 9.68704,-13.40711 l 1.98645,-2.76978 c -0.0302,-8.184 0.20255,-16.39466 -0.38734,-24.54311 -2.38889,-1.92089 -3.65219,-2.95556 -5.72481,-5.18133 -10.94056,-10.68089 -22.53675,-21.34845 -33.25432,-32.14579 7.64995,-2.42666 50.71302,-14.39466 53.70868,-18.09689 2.17923,0.69067 4.99277,1.67734 7.14535,2.24889 2.01043,-2.73067 5.19799,-6.09778 7.51492,-8.69067 7.80364,-2.00533 21.82603,-3.44266 29.86599,-3.792 9.8887,-1.59377 33.87887,1.75912 43.85375,3.48445 3.13513,3.2 5.31081,5.61955 8.17676,9.05422 2.63764,-0.97244 5.44763,-1.82133 8.13591,-2.67733 z"
     id="path2"
     style="stroke-width:0.888641" />
  <defs
     id="defs9">
    <linearGradient
       id="gradient_0"
       gradientUnits="userSpaceOnUse"
       x1="427.11444"
       y1="586.07861"
       x2="497.20407"
       y2="527.55219"
       gradientTransform="matrix(0.888393,0,0,0.888889,-156.37874,-211.04714)">
      <stop
         offset="0"
         stop-color="#36717D"
         id="stop4" />
      <stop
         offset="1"
         stop-color="#589A9E"
         id="stop6" />
    </linearGradient>
  </defs>
  <path
     fill="url(#gradient_0)"
     d="m 297.49946,192.35025 c 2.03087,1.65955 6.24985,5.36977 8.23185,6.74044 l 1.9367,2.60889 0.44953,0.21245 c 3.04541,1.73155 2.77445,4.28 4.78755,5.30844 0.96301,-1.54756 0.3669,-13.84533 6.5972,-14.31733 1.43387,1.37955 2.98411,4.18577 4.14613,5.02577 5.46717,10.30667 19.9844,37.4969 21.39872,48.50134 2.21921,10.35734 7.57622,23.19378 11.51624,33.20623 4.08217,10.37689 8.76844,22.384 13.4636,32.42756 -6.45773,3.23555 -13.32145,6.13867 -19.88313,9.24711 -3.11648,2.04533 -10.87748,5.04445 -14.66026,7.37245 -6.67449,4.10666 -13.18908,9.24889 -19.91954,13.00533 -4.61343,-5.49511 -11.88137,-20.68356 -15.44916,-27.59556 -1.32726,1.376 -1.33881,1.46578 -2.02465,3.29067 -1.57334,3.62933 -4.21009,9.20889 -5.50004,12.76356 l -1.06696,2.92355 c -1.67106,5.39734 -7.67394,14.70134 -10.10547,20.54667 l -1.13803,0.38045 c -1.73858,1.17777 -1.74214,1.79555 -2.55502,4.08266 -7.60908,44.06312 -13.61018,88.38935 -17.99173,132.8898 -1.14159,10.93689 -4.39133,31.15556 -2.29028,41.11823 -0.53392,1.17688 -0.46108,1.12355 -0.37668,2.43377 l -0.9639,0.97956 c -4.12126,5.76267 -5.70526,7.624 -11.27016,12.34578 l -1.15402,-0.52711 c -2.81532,-3.19911 -4.04308,-9.66223 -5.15357,-13.91378 l -0.0773,-0.66489 v -2.98756 c -4.64985,0.10934 -10.36755,-0.65422 -13.72834,-0.46489 l -0.99588,-0.003 c -0.74448,-2.48445 -2.73537,-24.45423 -3.13425,-28.14667 -2.31782,-21.53334 -4.82131,-43.04623 -7.51048,-64.53601 -2.58167,-19.89778 -5.3961,-39.76534 -8.44329,-59.59734 -0.55347,-3.59822 -3.59621,-18.94667 -3.51803,-20.99556 -0.90439,-0.92178 -1.05897,-0.88533 -2.19433,-1.51289 l -0.90172,-0.32355 c -0.80755,-1.42578 -1.69772,-3.70401 -2.36579,-5.26756 -2.33203,-3.21956 -6.60076,-12.32978 -8.14657,-16.16178 l -1.34414,-3.40533 c -1.5307,-3.52889 -3.15468,-7.56356 -5.01675,-10.88267 -0.86974,-2.28445 -1.05985,-2.736 -2.46973,-4.71911 -0.32427,-1.38845 -1.94914,-4.02134 -2.71849,-5.41067 3.03298,-10.00622 6.12636,-17.90134 8.76755,-28.44267 0.57657,-3.31734 4.65252,-19.70489 3.72237,-21.51823 -0.24875,1.21867 -0.34647,2.85423 -1.09628,3.55734 -2.14991,-1.11111 -4.58588,-4.44267 -6.35378,-5.93867 -13.2184,-11.184 -12.50591,-27.328 -19.24171,-40.21601 1.96069,-2.84622 7.59221,-11.304 9.68704,-13.40711 l 1.98645,-2.76978 c 2.33114,-2.34044 5.04874,-5.15377 7.94756,-6.74133 0.86263,3.58133 6.85662,6.59822 10.22007,9.31467 2.22632,1.57955 2.96546,2.11733 5.47428,3.272 1.11049,-0.42045 2.91393,-1.336 4.05107,-1.86667 10.43685,-0.51022 28.11498,-2.41778 37.60124,-2.21689 l 0.2292,-0.48711 c 11.0223,1.888 30.08454,0.98845 40.28596,3.12178 4.38422,2.24 5.82964,0.31644 9.38765,-2.51289 2.98056,-2.832 6.63452,-5.81867 8.87149,-9.12622 z"
     id="path11"
     style="fill:url(#gradient_0);stroke-width:0.888641" />
  <path
     fill="#235466"
     d="m 200.01699,312.27471 c 2.02642,7.28889 7.91469,25.58311 12.55299,30.79911 7.50426,-7.09511 14.94988,-10.44267 24.86879,-12.46311 0.79777,0.90844 1.05629,1.11111 1.60799,2.20444 l 0.89994,0.33067 -1.18778,0.47289 c -0.69295,2.43378 -0.51349,11.44711 -0.52327,14.60622 8.66184,1.06756 14.41773,3.38667 21.46802,8.57423 1.49605,-2.616 5.33924,-9.58045 5.80831,-12.25689 l 0.11549,-0.928 c 1.03587,-1.63912 9.65151,-22.49245 11.02407,-25.88979 l 0.70095,2.32978 c 1.04741,5.528 -2.90416,35.38312 0.37223,38.02667 -7.60908,44.06312 -13.61018,88.38935 -17.99173,132.8898 -1.14159,10.93689 -4.39133,31.15556 -2.29028,41.11823 -0.53392,1.17688 -0.46108,1.12355 -0.37668,2.43377 l -0.9639,0.97956 c -4.12126,5.76267 -5.70526,7.624 -11.27016,12.34578 l -1.15402,-0.52711 c -2.81532,-3.19911 -4.04308,-9.66223 -5.15357,-13.91378 l -0.0773,-0.66489 v -2.98756 c -4.64985,0.10934 -10.36755,-0.65422 -13.72834,-0.46489 l -0.99588,-0.003 c -0.74448,-2.48445 -2.73537,-24.45423 -3.13425,-28.14667 -2.31782,-21.53334 -4.82131,-43.04623 -7.51048,-64.53601 -2.58167,-19.89778 -5.3961,-39.76534 -8.44329,-59.59734 -0.55347,-3.59822 -3.59621,-18.94667 -3.51803,-20.99556 0.3367,-0.50933 0.80044,-1.40267 0.77912,-2.03467 -0.47796,-13.99022 -1.89583,-27.66133 -1.87895,-41.70222 z"
     id="path13"
     style="stroke-width:0.888641" />
  <defs
     id="defs20">
    <linearGradient
       id="gradient_1"
       gradientUnits="userSpaceOnUse"
       x1="378.10199"
       y1="735.81757"
       x2="479.64578"
       y2="682.46777"
       gradientTransform="matrix(0.888393,0,0,0.888889,-156.37874,-211.04714)">
      <stop
         offset="0"
         stop-color="#0C2842"
         id="stop15" />
      <stop
         offset="1"
         stop-color="#154055"
         id="stop17" />
    </linearGradient>
  </defs>
  <path
     fill="url(#gradient_1)"
     d="m 200.01699,312.27471 c 2.02642,7.28889 7.91469,25.58311 12.55299,30.79911 7.50426,-7.09511 14.94988,-10.44267 24.86879,-12.46311 0.79777,0.90844 1.05629,1.11111 1.60799,2.20444 l 0.89994,0.33067 -1.18778,0.47289 c -0.69295,2.43378 -0.51349,11.44711 -0.52327,14.60622 -1.63197,0.32978 -7.92979,1.81956 -8.93812,2.65245 2.77356,-0.37423 5.21487,-0.71289 7.95823,-1.26934 -1.12382,1.80712 -3.32259,1.10134 -4.60543,2.33067 1.02431,0.19822 4.19499,-0.36089 5.36145,-0.53422 -0.0764,4.15644 -0.20789,8.37955 -0.0817,12.52889 l -0.76669,0.35111 c 0.37757,1.06578 0.76491,1.92444 0.83776,3.05244 l 0.25763,0.18312 c -0.51082,2.76533 -0.35358,8.48444 -0.29583,11.46844 5.58977,0.60178 8.21053,0.93334 13.29924,3.352 -4.03686,-0.0133 -8.42463,-1.62578 -12.19764,-1.32978 l -0.56501,0.90934 1.76257,0.26666 -1.50583,0.408 c -1.12115,2.32445 -1.16024,10.54045 -0.47529,12.71023 l -0.28695,0.14578 c 0.14214,0.84533 0.40333,2.12622 0.47263,2.93866 l 0.31182,0.13689 c -0.99233,2.91378 -0.1679,11.65956 -0.59611,15.28 l -1.22776,0.34756 1.13181,0.816 0.16969,1.208 -0.89995,1.13689 0.76758,0.30755 c 0.5508,3.87023 -0.61566,8.08445 0.77023,11.39734 0.99411,0.71733 1.45253,0.71289 2.63942,0.94222 5.17045,0.28711 9.83717,3.00978 13.83761,6.07467 -5.87406,-2.84622 -10.43595,-4.92089 -17.05448,-5.11911 -0.0791,4.29511 -0.0444,10.19733 -0.43798,14.33333 l -1.05896,0.56 c 0.36868,1.01334 0.024,0.65867 0.92037,1.19022 1.23042,8.99378 -3.83164,15.79467 6.1841,18.95734 1.30328,0.0311 2.12504,-0.0667 3.30216,0.504 -3.54824,0.66933 -5.66528,0.62222 -9.3148,0.65067 0.0213,1.89778 -0.0409,5.40711 0.15192,7.16355 -5.00699,0.86045 -7.578,1.38756 -12.50947,2.97689 4.43131,0.04 8.50281,-0.73777 12.48637,-0.74311 -0.0453,2.72089 -0.3216,8.86934 0.15014,11.264 l 0.58456,0.44445 -0.55614,0.14222 -0.19811,2.11911 c -1.1709,0.87467 -0.52681,0.59022 -2.03886,0.80178 0.93192,0.23378 0.99411,0.32533 1.93581,0.33422 l 0.19367,11.88623 c 3.88139,0.33511 8.0675,0.616 11.90624,1.12711 -4.54591,1.37955 -7.17821,1.56177 -11.94622,1.53777 0.0311,3.45067 -0.0249,7.33956 0.12971,10.75112 -1.94114,-0.46489 -9.00209,-1.72978 -10.90503,-1.27467 1.20022,2.16889 8.77644,2.66222 11.14845,2.50222 -0.032,3.57334 -0.16969,7.70134 -0.0115,11.22667 l 0.0142,0.38222 c -4.64985,0.10934 -10.36755,-0.65422 -13.72834,-0.46489 l -0.99588,-0.003 c -0.74448,-2.48445 -2.73537,-24.45423 -3.13425,-28.14667 -2.31782,-21.53334 -4.82131,-43.04623 -7.51048,-64.53601 -2.58167,-19.89778 -5.3961,-39.76534 -8.44329,-59.59734 -0.55347,-3.59822 -3.59621,-18.94667 -3.51803,-20.99556 0.3367,-0.50933 0.80044,-1.40267 0.77912,-2.03467 -0.47796,-13.99022 -1.89583,-27.66133 -1.87895,-41.70222 z"
     id="path22"
     style="fill:url(#gradient_1);stroke-width:0.888641" />
  <path
     fill="#123c52"
     d="m 232.65033,351.93871 c 1.02431,0.19822 4.19499,-0.36089 5.36145,-0.53422 -0.0764,4.15644 -0.20789,8.37955 -0.0817,12.52889 l -0.76669,0.35111 c -5.22286,0.82222 -8.4726,2.74933 -12.25715,3.49778 -5.7026,0.37422 -12.5379,0.90755 -17.98108,2.59378 6.98632,-7.49867 15.8587,-15.22223 25.7252,-18.43734 z"
     id="path24"
     style="stroke-width:0.888641" />
  <path
     fill="#011e35"
     d="m 214.29524,409.42938 c 6.70292,-8.95022 12.22695,-13.14311 23.69877,-13.97866 0.14214,0.84533 0.40333,2.12622 0.47263,2.93866 -2.37379,0.79289 -4.59122,0.95911 -7.0805,1.73689 -6.48082,2.02311 -11.5269,5.58489 -17.0909,9.30311 z"
     id="path26"
     style="stroke-width:0.888641" />
  <path
     fill="#011e35"
     d="m 236.95459,414.15383 1.13181,0.816 0.16969,1.208 -0.89995,1.13689 c -7.76011,0.376 -14.65048,5.24711 -20.895,9.37156 5.84296,-7.65867 11.19464,-10.88534 20.49345,-12.53245 z"
     id="path28"
     style="stroke-width:0.888641" />
  <path
     fill="#011e35"
     d="m 215.91034,392.17605 c 0.29939,-0.45956 0.6041,-0.91467 0.91504,-1.36622 3.59888,-5.20889 10.67671,-9.88356 16.92567,-10.99289 2.98588,-0.53067 3.28438,-0.22134 5.31347,1.19377 l -0.56501,0.90934 c -11.77832,2.94311 -12.20564,2.55822 -22.58917,10.256 z"
     id="path30"
     style="stroke-width:0.888641" />
  <path
     fill="#011e35"
     d="m 237.43877,330.61071 c 0.79777,0.90844 1.05629,1.11111 1.60799,2.20444 -5.75768,0.82489 -6.62564,0.984 -11.99064,3.09867 -3.46918,1.36711 -11.98976,6.936 -14.48614,7.16 7.50426,-7.09511 14.94988,-10.44267 24.86879,-12.46311 z"
     id="path32"
     style="stroke-width:0.888641" />
  <path
     fill="#011e35"
     d="m 237.16336,364.28449 c 0.37757,1.06578 0.76491,1.92444 0.83776,3.05244 -8.61475,1.21867 -12.36288,3.43556 -19.8467,7.70667 1.16824,-1.19644 7.0112,-6.224 6.75179,-7.26133 3.78455,-0.74845 7.03429,-2.67556 12.25715,-3.49778 z"
     id="path34"
     style="stroke-width:0.888641" />
  <path
     fill="#0a2a41"
     d="m 222.58661,436.12272 c 7.27416,-5.55022 9.84784,-6.73333 18.94676,-6.16089 5.17045,0.28711 9.83717,3.00978 13.83761,6.07467 -5.87406,-2.84622 -10.43595,-4.92089 -17.05448,-5.11911 -6.35201,0.87022 -9.81852,2.70844 -15.72989,5.20533 z"
     id="path36"
     style="stroke-width:0.888641" />
  <path
     fill="#0a2a41"
     d="m 237.91139,467.11295 c -1.38589,-0.0382 -3.11559,-0.52089 -4.49882,-0.84178 l 0.12615,-0.424 c 4.44019,-0.48533 6.04907,0.0836 10.38531,0.11111 1.30328,0.0311 2.12504,-0.0667 3.30216,0.504 -3.54824,0.66933 -5.66528,0.62222 -9.3148,0.65067 z"
     id="path38"
     style="stroke-width:0.888641" />
  <path
     fill="#011e35"
     d="m 235.9818,491.28184 c -2.16146,-0.12089 -2.97434,-0.0898 -5.08694,-0.72 l -0.25585,-0.55645 c 2.06107,-1 5.22108,-1.29155 7.57976,-1.64444 l -0.19811,2.11911 c -1.1709,0.87467 -0.52681,0.59022 -2.03886,0.80178 z"
     id="path40"
     style="stroke-width:0.888641" />
  <path
     fill="#336a78"
     d="m 238.23565,348.22493 c 8.66184,1.06756 14.41773,3.38667 21.46802,8.57423 1.89761,1.48444 4.31404,3.14488 4.94213,5.52533 2.05574,2.16267 7.25906,6.45689 7.3479,8.87822 l -1.23753,0.152 c -4.91992,-1.36711 -12.06704,-2.65333 -17.329,-3.87733 -6.20897,-2.09689 -9.17443,-2.74045 -15.49712,-3.544 -0.12616,-4.14934 0.005,-8.37245 0.0817,-12.52889 -1.16646,0.17333 -4.33714,0.73244 -5.36145,0.53422 1.28284,-1.22933 3.48161,-0.52355 4.60543,-2.33067 -2.74336,0.55645 -5.18467,0.89511 -7.95823,1.26934 1.00833,-0.83289 7.30615,-2.32267 8.93812,-2.65245 z"
     id="path42"
     style="stroke-width:0.888641" />
  <path
     fill="#123c52"
     d="m 238.23565,348.22493 c 8.66184,1.06756 14.41773,3.38667 21.46802,8.57423 1.89761,1.48444 4.31404,3.14488 4.94213,5.52533 -7.00675,-6.36622 -17.04293,-10.92089 -26.63402,-10.92 -1.16646,0.17333 -4.33714,0.73244 -5.36145,0.53422 1.28284,-1.22933 3.48161,-0.52355 4.60543,-2.33067 -2.74336,0.55645 -5.18467,0.89511 -7.95823,1.26934 1.00833,-0.83289 7.30615,-2.32267 8.93812,-2.65245 z"
     id="path44"
     style="stroke-width:0.888641" />
  <path
     fill="#123c52"
     d="m 238.28096,395.30494 c 8.48238,0.37511 20.61871,5.87289 25.42581,13.07644 -2.15968,-0.61955 -4.90748,-2.776 -7.03696,-4.00089 -5.51515,-3.12355 -11.59797,-5.11466 -17.89135,-5.85422 l -0.31182,-0.13689 c -0.0693,-0.81244 -0.33049,-2.09333 -0.47263,-2.93866 z"
     id="path46"
     style="stroke-width:0.888641" />
  <path
     fill="#123c52"
     d="m 237.93005,363.93338 c 6.32269,0.80355 9.28815,1.44711 15.49712,3.544 l 0.007,0.74578 c -0.94081,0.78578 -0.77734,0.33066 -0.91327,1.25244 2.20677,1.25422 4.29005,2.73245 6.39377,4.16089 -8.59876,-3.48089 -10.98854,-5.88267 -20.65603,-6.11644 l -0.25763,-0.18312 c -0.0728,-1.128 -0.46019,-1.98666 -0.83776,-3.05244 z"
     id="path48"
     style="stroke-width:0.888641" />
  <path
     fill="#123c52"
     d="m 238.18235,413.80627 c 10.91391,2.24089 13.8074,3.36267 22.22759,10.88445 -6.58921,-3.45067 -14.61939,-8.29333 -22.28622,-7.06845 l -0.76758,-0.30755 0.89995,-1.13689 -0.16969,-1.208 -1.13181,-0.816 z"
     id="path50"
     style="stroke-width:0.888641" />
  <path
     fill="#123c52"
     d="m 239.06452,381.01071 c 3.77301,-0.296 8.16078,1.31645 12.19764,1.32978 3.22131,1.37778 10.22718,5.06667 10.75666,8.85956 -7.73612,-6.224 -11.67437,-7.43556 -21.75674,-9.01334 l -1.76257,-0.26666 z"
     id="path52"
     style="stroke-width:0.888641" />
  <path
     fill="#123c52"
     d="m 238.43288,529.37251 c 7.03785,-0.82844 9.80608,-2.48622 16.1421,-5.96356 -3.63442,3.53956 -6.79799,6.64445 -11.77832,8.32445 -1.24641,0.42133 -3.31459,0.83644 -4.27228,1.67378 l -0.0773,-0.66489 v -2.98756 z"
     id="path54"
     style="stroke-width:0.888641" />
  <path
     fill="#0a2a41"
     d="m 238.06331,474.2765 c 5.95578,0.22045 7.72635,0.59111 13.31612,2.66667 -4.26784,-0.20622 -9.11403,-0.55911 -13.33922,-0.43289 -3.98356,0.005 -8.05506,0.78311 -12.48637,0.74311 4.93147,-1.58933 7.50248,-2.11644 12.50947,-2.97689 z"
     id="path56"
     style="stroke-width:0.888641" />
  <path
     fill="#0a2a41"
     d="m 238.44443,518.14584 c -2.37201,0.16 -9.94823,-0.33333 -11.14845,-2.50222 1.90294,-0.45511 8.96389,0.80978 10.90503,1.27467 2.94324,-0.18578 9.9882,-0.98667 12.38953,-0.73689 -3.92137,1.38489 -8.02841,1.69955 -12.14611,1.96444 z"
     id="path58"
     style="stroke-width:0.888641" />
  <path
     fill="#0a2a41"
     d="m 238.77491,488.21873 c 4.54502,0.26578 7.07338,0.71466 11.30658,2.48178 -4.34336,0.68355 -7.78588,0.75555 -12.16388,0.91555 -0.9417,-0.009 -1.00389,-0.10044 -1.93581,-0.33422 1.51205,-0.21156 0.86796,0.0729 2.03886,-0.80178 l 0.19811,-2.11911 z"
     id="path60"
     style="stroke-width:0.888641" />
  <path
     fill="#235466"
     d="m 253.42717,367.47738 c 5.26196,1.224 12.40908,2.51022 17.329,3.87733 -3.57578,1.14134 -14.14322,-1.36 -18.23516,-1.87911 0.13593,-0.92178 -0.0275,-0.46666 0.91327,-1.25244 z"
     id="path62"
     style="stroke-width:0.888641" />
  <path
     fill="#123c52"
     d="m 237.73993,447.00094 c -0.89639,-0.53155 -0.55169,-0.17688 -0.92037,-1.19022 l 1.05896,-0.56 c 4.96878,0.13422 10.30891,0.96 14.48347,3.90845 -5.91936,-0.47023 -7.18266,-2.59645 -14.62206,-2.15823 z"
     id="path64"
     style="stroke-width:0.888641" />
  <defs
     id="defs71">
    <linearGradient
       id="gradient_2"
       gradientUnits="userSpaceOnUse"
       x1="366.5293"
       y1="552.6615"
       x2="459.54419"
       y2="519.16479"
       gradientTransform="matrix(0.888393,0,0,0.888889,-156.37874,-211.04714)">
      <stop
         offset="0"
         stop-color="#12364F"
         id="stop66" />
      <stop
         offset="1"
         stop-color="#245A6D"
         id="stop68" />
    </linearGradient>
  </defs>
  <path
     fill="url(#gradient_2)"
     d="m 173.43094,199.59291 c 2.33114,-2.34044 5.04874,-5.15377 7.94756,-6.74133 0.86263,3.58133 6.85662,6.59822 10.22007,9.31467 2.22632,1.57955 2.96546,2.11733 5.47428,3.272 1.11049,-0.42045 2.91393,-1.336 4.05107,-1.86667 10.43685,-0.51022 28.11498,-2.41778 37.60124,-2.21689 l 0.28428,0.73067 c -0.20077,5.17955 -0.44419,13.30222 -0.14214,18.368 l -0.0329,17.64534 0.10039,0.19822 c -5.08605,1.264 -13.02473,6.19822 -17.13533,9.30667 l -0.24786,0.72 -0.21232,-0.28356 0.18922,0.24622 c 5.6031,-2.31644 10.34445,-5.78222 16.15454,-7.66666 0.44686,-0.144 0.7045,-0.30045 1.15047,-0.52356 -0.20877,3.672 -0.18834,6.38667 -0.0693,10.07022 5.15534,0.77067 10.75844,3.00623 14.96764,6.03556 -5.18821,-1.04 -9.13623,-3.69778 -15.00407,-4.65689 -0.0133,3.23022 0.10306,7.544 -0.0702,10.68178 -3.51182,0.53244 -16.03905,5.192 -18.23427,7.56978 l 0.28607,-0.45511 -0.25675,0.47377 c 4.8986,-0.95288 12.37887,-4.12711 18.46436,-5.6 -0.30294,4.42223 -0.41577,7.06578 -0.24608,11.55201 8.11991,1.32088 15.41006,3.664 22.07567,8.64622 l -0.33403,0.14311 c -7.65351,-3.17156 -12.86926,-5.69245 -21.09401,-7.04 -0.89905,2.27467 -0.73914,6.68089 -0.47617,9.144 l 0.38467,0.60089 c -2.97789,-0.72978 -12.63828,2.29778 -14.54566,4.47644 1.41077,0.24534 10.77266,-2.77688 14.10857,-3.33155 -0.0773,3.34667 -0.12526,6.00178 0.0897,9.33155 -3.63264,0.15912 -17.29701,4.23201 -19.0125,6.92712 l 0.45308,0.41955 0.51527,-0.27644 c 5.40587,-2.856 12.41529,-4.87734 18.47946,-5.672 -1.1327,2.16355 -0.67429,6.98578 -0.57479,9.59378 7.57177,0.59822 17.37075,3.40711 22.42659,9.45955 -1.49872,0.024 -4.8062,-2.57422 -6.72868,-3.49333 -4.89239,-2.37956 -10.18277,-3.83289 -15.60463,-4.28533 -0.22121,3.34222 -0.26207,5.97689 -0.23098,9.33244 8.03907,0.80622 14.2436,3.02311 20.90389,7.72089 -6.20543,-2.58667 -13.84916,-6.00444 -20.63027,-6.05956 -0.22476,2.73956 -0.64852,5.95378 -0.15458,8.61423 l 1.02254,0.848 c -0.98878,0.0133 -1.07229,-0.50578 -2.30537,-0.256 -9.91891,2.02044 -17.36453,5.368 -24.86879,12.46311 -4.6383,-5.216 -10.52657,-23.51022 -12.55299,-30.79911 -0.0169,14.04089 1.40099,27.712 1.87895,41.70222 0.0213,0.632 -0.44242,1.52534 -0.77912,2.03467 -0.90439,-0.92178 -1.05897,-0.88533 -2.19433,-1.51289 l -0.90172,-0.32355 c -0.80755,-1.42578 -1.69772,-3.70401 -2.36579,-5.26756 -2.33203,-3.21956 -6.60076,-12.32978 -8.14657,-16.16178 l -1.34414,-3.40533 c -1.5307,-3.52889 -3.15468,-7.56356 -5.01675,-10.88267 -0.86974,-2.28445 -1.05985,-2.736 -2.46973,-4.71911 -0.32427,-1.38845 -1.94914,-4.02134 -2.71849,-5.41067 3.03298,-10.00622 6.12636,-17.90134 8.76755,-28.44267 0.57657,-3.31734 4.65252,-19.70489 3.72237,-21.51823 -0.24875,1.21867 -0.34647,2.85423 -1.09628,3.55734 -2.14991,-1.11111 -4.58588,-4.44267 -6.35378,-5.93867 -13.2184,-11.184 -12.50591,-27.328 -19.24171,-40.21601 1.96069,-2.84622 7.59221,-11.304 9.68704,-13.40711 z"
     id="path73"
     style="fill:url(#gradient_2);stroke-width:0.888641" />
  <path
     fill="#235466"
     d="m 201.12392,203.57158 c 10.43685,-0.51022 28.11498,-2.41778 37.60124,-2.21689 l 0.28428,0.73067 c -4.88971,7.33333 -19.26302,20.31911 -22.95962,26.52356 -0.88751,0.0942 -1.02432,0.50489 -1.8523,1.256 -1.81499,-5.05067 -12.25094,-22.40889 -17.12467,-24.42667 1.11049,-0.42045 2.91393,-1.336 4.05107,-1.86667 z"
     id="path75"
     style="stroke-width:0.888641" />
  <path
     fill="#235466"
     d="m 184.72685,279.88537 c 4.22431,0.89422 7.35856,2.63822 10.28848,5.86578 -0.007,7.12355 -3.17067,16.50755 -4.78044,23.78756 -1.10694,5.00177 -2.46262,15.47822 -4.07062,19.80178 -1.5307,-3.52889 -3.15468,-7.56356 -5.01675,-10.88267 -0.86974,-2.28445 -1.05985,-2.736 -2.46973,-4.71911 -0.32427,-1.38845 -1.94914,-4.02134 -2.71849,-5.41067 3.03298,-10.00622 6.12636,-17.90134 8.76755,-28.44267 z"
     id="path77"
     style="stroke-width:0.888641" />
  <path
     fill="#336a78"
     d="m 239.00944,202.08536 c -0.20077,5.17955 -0.44419,13.30222 -0.14214,18.368 l -0.0329,17.64534 c -0.84575,-2.65245 -0.46285,-14.99556 -0.40688,-18.15823 -5.33392,1.15289 -7.13469,1.61956 -12.09547,3.65067 -3.29505,1.34933 -7.79921,4.62578 -10.28226,5.01778 3.6966,-6.20445 18.06991,-19.19023 22.95962,-26.52356 z"
     id="path79"
     style="stroke-width:0.888641" />
  <path
     fill="#0a2a41"
     d="m 198.42854,315.74048 c -0.14303,-5.41422 -0.41754,-7.50933 0.5588,-12.70489 l 0.0195,0.32978 c 0.89373,0.93956 0.69117,3.88178 0.75158,5.48089 l 0.25853,3.42845 c -0.0169,14.04089 1.40099,27.712 1.87895,41.70222 0.0213,0.632 -0.44242,1.52534 -0.77912,2.03467 -0.90439,-0.92178 -1.05897,-0.88533 -2.19433,-1.51289 l -0.90172,-0.32355 c -0.80755,-1.42578 -1.69772,-3.70401 -2.36579,-5.26756 0.15102,-9.072 2.35957,-22.78934 2.77356,-33.16712 z"
     id="path81"
     style="stroke-width:0.888641" />
  <path
     fill="#235466"
     d="m 173.43094,199.59291 c 2.33114,-2.34044 5.04874,-5.15377 7.94756,-6.74133 0.86263,3.58133 6.85662,6.59822 10.22007,9.31467 -2.62431,0.94311 -16.86614,0.45778 -20.15408,0.19644 z"
     id="path83"
     style="stroke-width:0.888641" />
  <path
     fill="#123c52"
     d="m 215.81794,286.27204 c 4.86307,-4.51734 16.24605,-10.08978 22.85303,-10.50489 8.11991,1.32088 15.41006,3.664 22.07567,8.64622 l -0.33403,0.14311 c -7.65351,-3.17156 -12.86926,-5.69245 -21.09401,-7.04 -1.55735,0.51644 -3.20088,0.79378 -4.79288,1.19022 -6.56255,1.63556 -12.61606,4.696 -18.70778,7.56534 z"
     id="path85"
     style="stroke-width:0.888641" />
  <path
     fill="#123c52"
     d="m 216.33765,318.83471 c 5.05318,-4.96356 15.38875,-9.34489 22.40261,-10.10489 7.57177,0.59822 17.37075,3.40711 22.42659,9.45955 -1.49872,0.024 -4.8062,-2.57422 -6.72868,-3.49333 -4.89239,-2.37956 -10.18277,-3.83289 -15.60463,-4.28533 -0.54281,0.26844 -0.58012,0.35111 -1.07673,0.432 -7.75656,1.25688 -14.49324,4.41777 -21.41916,7.992 z"
     id="path87"
     style="stroke-width:0.888641" />
  <path
     fill="#0a2a41"
     d="m 216.85381,330.00804 c 5.85096,-6.26844 13.21751,-9.44889 21.74875,-10.26489 8.03907,0.80622 14.2436,3.02311 20.90389,7.72089 -6.20543,-2.58667 -13.84916,-6.00444 -20.63027,-6.05956 -9.08648,0.71556 -14.61051,3.93778 -22.02237,8.60356 z"
     id="path89"
     style="stroke-width:0.888641" />
  <path
     d="m 172.58963,220.51381 c 5.58888,1.112 12.56898,6.136 16.51434,10.38044 -0.91594,2.56445 -1.50849,3.74489 -2.77268,6.16089 -1.96068,2.05333 -6.04285,4.02311 -8.38287,1.51822 -3.70105,-3.96178 -3.4905,-10.27022 -3.62642,-15.30755 -0.92127,-1.18756 -1.10428,-1.40445 -1.73237,-2.752 z"
     id="path91"
     style="stroke-width:0.888641" />
  <defs
     id="defs98">
    <linearGradient
       id="gradient_3"
       gradientUnits="userSpaceOnUse"
       x1="513.84009"
       y1="537.19934"
       x2="567.77179"
       y2="536.37134"
       gradientTransform="matrix(0.888393,0,0,0.888889,-156.37874,-211.04714)">
      <stop
         offset="0"
         stop-color="#0E394E"
         id="stop93" />
      <stop
         offset="1"
         stop-color="#3F7D86"
         id="stop95" />
    </linearGradient>
  </defs>
  <path
     fill="url(#gradient_3)"
     d="m 308.11754,201.91203 c 3.04541,1.73155 2.77445,4.28 4.78755,5.30844 0.96301,-1.54756 0.3669,-13.84533 6.5972,-14.31733 1.43387,1.37955 2.98411,4.18577 4.14613,5.02577 5.46717,10.30667 19.9844,37.4969 21.39872,48.50134 2.21921,10.35734 7.57622,23.19378 11.51624,33.20623 4.08217,10.37689 8.76844,22.384 13.4636,32.42756 -6.45773,3.23555 -13.32145,6.13867 -19.88313,9.24711 -3.11648,2.04533 -10.87748,5.04445 -14.66026,7.37245 -6.67449,4.10666 -13.18908,9.24889 -19.91954,13.00533 -4.61343,-5.49511 -11.88137,-20.68356 -15.44916,-27.59556 -0.0577,-0.98578 2.40399,-4.93066 3.03919,-6.01066 l -2.0051,-5.47378 c -1.89316,-3.32534 -5.52403,-17.46845 -6.73313,-21.90845 -1.18956,-5.52622 -2.30005,-11.06934 -3.33059,-16.62756 8.22652,-8.136 12.98742,-12.13067 17.51823,-23.00889 2.49638,-6.58222 4.58233,-12.96711 6.76511,-19.64534 0.20522,-2.11288 0.58723,-2.68088 1.53337,-4.60889 l 0.32426,-0.83111 c -1.07318,-2.81066 -7.06184,-10.176 -9.10869,-14.06666 z"
     id="path100"
     style="fill:url(#gradient_3);stroke-width:0.888641" />
  <path
     fill="#336a78"
     d="m 350.14385,321.31115 -0.42998,-0.34844 c -0.80844,-8.37423 -6.64962,-70.94757 -4.66673,-74.53246 2.21921,10.35734 7.57622,23.19378 11.51624,33.20623 4.08217,10.37689 8.76844,22.384 13.4636,32.42756 -6.45773,3.23555 -13.32145,6.13867 -19.88313,9.24711 z"
     id="path102"
     style="stroke-width:0.888641" />
  <defs
     id="defs109">
    <linearGradient
       id="gradient_4"
       gradientUnits="userSpaceOnUse"
       x1="506.68082"
       y1="528.62042"
       x2="530.76532"
       y2="537.63477"
       gradientTransform="matrix(0.888393,0,0,0.888889,-156.37874,-211.04714)">
      <stop
         offset="0"
         stop-color="#00182E"
         id="stop104" />
      <stop
         offset="1"
         stop-color="#154A5C"
         id="stop106" />
    </linearGradient>
  </defs>
  <path
     fill="url(#gradient_4)"
     d="m 315.3686,221.41869 c 2.11882,3.18845 0.0684,25.78223 -0.9035,30.5929 -0.86085,4.35644 -2.32847,8.57155 -4.35934,12.52 -2.94147,5.72533 -7.35056,10.968 -8.01508,17.528 -0.39445,3.896 1.2011,17.78578 -0.11638,20.57245 l -0.82532,-0.0231 c -1.89316,-3.32534 -5.52403,-17.46845 -6.73313,-21.90845 -1.18956,-5.52622 -2.30005,-11.06934 -3.33059,-16.62756 8.22652,-8.136 12.98742,-12.13067 17.51823,-23.00889 2.49638,-6.58222 4.58233,-12.96711 6.76511,-19.64534 z"
     id="path111"
     style="fill:url(#gradient_4);stroke-width:0.888641" />
  <path
     fill="#417d87"
     d="m 297.49946,192.35025 c 2.03087,1.65955 6.24985,5.36977 8.23185,6.74044 l 1.9367,2.60889 0.44953,0.21245 c 2.04685,3.89066 8.03551,11.256 9.10869,14.06666 l -0.32426,0.83111 c -0.94614,1.92801 -1.32815,2.49601 -1.53337,4.60889 -2.18278,6.67823 -4.26873,13.06312 -6.76511,19.64534 -4.53081,10.87822 -9.29171,14.87289 -17.51823,23.00889 1.03054,5.55822 2.14103,11.10134 3.33059,16.62756 -6.29515,0.864 -9.92601,1.76089 -16.34021,0.76267 -5.42631,-15.69601 -9.33257,-35.4649 -14.94721,-52.43823 l -0.18657,0.13511 c -3.97467,1.70489 -19.88934,-6.48889 -24.07456,-8.70667 -0.30205,-5.06578 -0.0586,-13.18845 0.14214,-18.368 l -0.28428,-0.73067 0.2292,-0.48711 c 11.0223,1.888 30.08454,0.98845 40.28596,3.12178 4.38422,2.24 5.82964,0.31644 9.38765,-2.51289 2.98056,-2.832 6.63452,-5.81867 8.87149,-9.12622 z"
     id="path113"
     style="stroke-width:0.888641" />
  <path
     fill="#53979a"
     d="m 297.49946,192.35025 c 2.03087,1.65955 6.24985,5.36977 8.23185,6.74044 l 1.9367,2.60889 0.44953,0.21245 c 2.04685,3.89066 8.03551,11.256 9.10869,14.06666 l -0.32426,0.83111 c -5.62442,-0.544 -30.06145,-8.67111 -35.52684,-11.23644 -3.46029,3.45778 -16.85282,19.224 -18.2467,23.45156 l -0.18657,0.13511 c -3.97467,1.70489 -19.88934,-6.48889 -24.07456,-8.70667 -0.30205,-5.06578 -0.0586,-13.18845 0.14214,-18.368 l -0.28428,-0.73067 0.2292,-0.48711 c 11.0223,1.888 30.08454,0.98845 40.28596,3.12178 4.38422,2.24 5.82964,0.31644 9.38765,-2.51289 2.98056,-2.832 6.63452,-5.81867 8.87149,-9.12622 z"
     id="path115"
     style="stroke-width:0.888641" />
  <path
     fill="#64a9a4"
     d="m 239.00944,202.08536 c 2.93614,1.07378 16.21851,19.60445 20.08213,22.77067 0.49572,0.40533 3.37678,3.64978 3.85029,4.304 -3.97467,1.70489 -19.88934,-6.48889 -24.07456,-8.70667 -0.30205,-5.06578 -0.0586,-13.18845 0.14214,-18.368 z"
     id="path117"
     style="stroke-width:0.888641" />
  <path
     fill="#64a9a4"
     d="m 297.49946,192.35025 c 2.03087,1.65955 6.24985,5.36977 8.23185,6.74044 l 1.9367,2.60889 c -3.00632,0.94756 -15.70679,0.34578 -19.04004,-0.22311 2.98056,-2.832 6.63452,-5.81867 8.87149,-9.12622 z"
     id="path119"
     style="stroke-width:0.888641" />
  <defs
     id="defs126">
    <linearGradient
       id="gradient_5"
       gradientUnits="userSpaceOnUse"
       x1="494.47467"
       y1="523.40717"
       x2="513.66272"
       y2="502.51633"
       gradientTransform="matrix(0.888393,0,0,0.888889,-156.37874,-211.04714)">
      <stop
         offset="0"
         stop-color="#0F3D4F"
         id="stop121" />
      <stop
         offset="1"
         stop-color="#386C7D"
         id="stop123" />
    </linearGradient>
  </defs>
  <path
     fill="url(#gradient_5)"
     d="m 283.46196,234.64803 c 2.14103,-1.33333 4.31226,-2.616 6.51193,-3.84711 0.80044,5.19733 2.51148,8.28978 8.17499,8.77333 l -0.22121,1.02756 c 2.4413,1.55733 7.18621,0.144 10.67582,0.46222 -4.53081,10.87822 -9.29171,14.87289 -17.51823,23.00889 -1.00388,-7.29778 -5.48493,-21.87645 -7.6233,-29.42489 z"
     id="path128"
     style="fill:url(#gradient_5);stroke-width:0.888641" />
  <path
     d="m 289.97389,230.80092 c 3.07206,-2.56445 12.11679,-10.53067 16.11989,-10.07556 l 0.3598,0.78222 c -0.46908,0.74489 -2.06196,3.28267 -2.15702,4.03378 -0.804,6.32622 1.6071,10.90045 -6.14768,14.03289 -5.66351,-0.48355 -7.37455,-3.576 -8.17499,-8.77333 z"
     id="path130"
     style="stroke-width:0.888641" />
  <defs
     id="defs137">
    <linearGradient
       id="gradient_6"
       gradientUnits="userSpaceOnUse"
       x1="470.44666"
       y1="615.79761"
       x2="511.23849"
       y2="586.53131"
       gradientTransform="matrix(0.888393,0,0,0.888889,-156.37874,-211.04714)">
      <stop
         offset="0"
         stop-color="#174658"
         id="stop132" />
      <stop
         offset="1"
         stop-color="#2C6A78"
         id="stop134" />
    </linearGradient>
  </defs>
  <path
     fill="url(#gradient_6)"
     d="m 277.35249,320.05426 c -0.78446,-8.63644 2.63763,-24.87378 5.42275,-33.19289 3.70726,14.32622 6.98099,28.76178 9.81496,43.28623 l -1.06696,2.92355 c -1.67106,5.39734 -7.67394,14.70134 -10.10547,20.54667 l -1.13803,0.38045 c -1.73858,1.17777 -1.74214,1.79555 -2.55502,4.08266 -3.27639,-2.64355 0.67518,-32.49867 -0.37223,-38.02667 z"
     id="path139"
     style="fill:url(#gradient_6);stroke-width:0.888641" />
  <path
     fill="#336a78"
     d="m 239.9467,333.14582 c 13.12512,2.032 15.60995,6.07644 25.56528,11.39645 -0.46907,2.67644 -4.31226,9.64089 -5.80831,12.25689 -7.05029,-5.18756 -12.80618,-7.50667 -21.46802,-8.57423 0.01,-3.15911 -0.16968,-12.17244 0.52327,-14.60622 z"
     id="path141"
     style="stroke-width:0.888641" />
  <path
     fill="#123c52"
     d="m 238.91705,264.21514 c -6.08549,1.47289 -13.56576,4.64712 -18.46436,5.6 l 0.25675,-0.47377 -0.28607,0.45511 c 2.19522,-2.37778 14.72245,-7.03734 18.23427,-7.56978 7.04318,1.79911 13.31701,3.44711 19.62549,7.44356 l 0.17146,0.40444 c -6.22142,-0.84889 -13.85715,-5.74933 -19.53754,-5.85956 z"
     id="path143"
     style="stroke-width:0.888641" />
  <path
     fill="#123c52"
     d="m 237.43877,330.61071 c 1.23308,-0.24978 1.31659,0.26933 2.30537,0.256 8.45306,0.38489 20.30156,6.70133 25.88333,12.74756 l -0.11549,0.928 c -9.95533,-5.32001 -12.44016,-9.36445 -25.56528,-11.39645 l -0.89994,-0.33067 c -0.5517,-1.09333 -0.81022,-1.296 -1.60799,-2.20444 z"
     id="path145"
     style="stroke-width:0.888641" />
  <path
     fill="#235466"
     d="m 238.93482,238.29692 c 6.35023,0.97067 14.63627,7.71644 19.78362,11.76089 -6.35112,-3.07645 -13.37653,-8.42045 -19.8849,-9.96178 -0.44597,0.22311 -0.70361,0.37956 -1.15047,0.52356 -5.81009,1.88444 -10.55144,5.35022 -16.15454,7.66666 l -0.18922,-0.24622 0.21232,0.28356 0.24786,-0.72 c 4.1106,-3.10845 12.04928,-8.04267 17.13533,-9.30667 z"
     id="path147"
     style="stroke-width:0.888641" />
  <path
     fill="#123c52"
     d="m 239.31505,299.13604 c -6.06417,0.79466 -13.07359,2.816 -18.47946,5.672 l -0.51527,0.27644 -0.45308,-0.41955 c 1.71549,-2.69511 15.37986,-6.768 19.0125,-6.92712 7.5389,0.67556 14.24893,2.91112 20.25358,7.57778 -6.81308,-3.03377 -12.2234,-5.23644 -19.81827,-6.17955 z"
     id="path149"
     style="stroke-width:0.888641" />
  <path
     fill="#123c52"
     d="m 238.79001,288.40626 c -3.33591,0.55467 -12.6978,3.57689 -14.10857,3.33155 1.90738,-2.17866 11.56777,-5.20622 14.54566,-4.47644 5.35079,0.424 14.10768,3.11822 18.17919,6.52622 -6.39821,-2.536 -11.62907,-4.73511 -18.61628,-5.38133 z"
     id="path151"
     style="stroke-width:0.888641" />
  <path
     fill="#336a78"
     d="m 292.46583,119.25335 c 1.78833,-1.03467 16.59074,-6.28089 19.38651,-7.27022 20.44814,-7.23645 49.36267,-18.306674 71.35928,-17.244451 -1.39478,4.028444 -2.93969,5.469331 -5.72658,8.711111 l 0.0338,3.44089 c -2.26985,2.64978 -18.12322,19.776 -18.23338,20.55467 l 0.191,0.192 c 7.43141,-1.69689 19.76764,-4.792 27.07911,-5.82845 -1.30771,1.31112 -10.30714,2.95112 -12.66227,3.47645 -2.32492,3.67289 -21.04336,18.18222 -15.2235,23.99911 l -0.85019,0.52356 -0.72848,-0.22933 c -0.79689,-0.25423 -1.02165,-0.34223 -1.77235,-0.76089 -2.2041,1.57689 -6.36622,8.77866 -8.28248,11.23822 -0.97368,1.24978 -2.18989,2.36978 -3.26751,3.64533 0.0773,2.34045 1.6222,1.208 1.71993,3.21067 1.0865,0.992 2.56567,2.18222 3.29949,3.40533 l -0.11016,1.71023 c -2.09928,-0.55645 -3.30483,-4.78311 -6.06062,-5.72 -2.13747,1.73777 -2.33736,2.688 -3.92403,4.24266 -6.68161,6.54756 -11.9942,13.61512 -18.72999,20.26134 0.90083,1.47111 3.75257,5.65156 3.68505,7.11733 -1.16202,-0.84 -2.71226,-3.64622 -4.14613,-5.02577 -6.2303,0.472 -5.63419,12.76977 -6.5972,14.31733 -2.0131,-1.02844 -1.74214,-3.57689 -4.78755,-5.30844 l -0.44953,-0.21245 -1.9367,-2.60889 c -1.982,-1.37067 -6.20098,-5.08089 -8.23185,-6.74044 -2.23697,3.30755 -5.89093,6.29422 -8.87149,9.12622 -3.55801,2.82933 -5.00343,4.75289 -9.38765,2.51289 -10.20142,-2.13333 -29.26366,-1.23378 -40.28596,-3.12178 l -0.2292,0.48711 c -9.48626,-0.20089 -27.16439,1.70667 -37.60124,2.21689 -1.13714,0.53067 -2.94058,1.44622 -4.05107,1.86667 -2.50882,-1.15467 -3.24796,-1.69245 -5.47428,-3.272 -3.36345,-2.71645 -9.35744,-5.73334 -10.22007,-9.31467 -2.89882,1.58756 -5.61642,4.40089 -7.94756,6.74133 -0.0302,-8.184 0.20255,-16.39466 -0.38734,-24.54311 -2.38889,-1.92089 -3.65219,-2.95556 -5.72481,-5.18133 -10.94056,-10.68089 -22.53675,-21.34845 -33.25432,-32.14579 7.64995,-2.42666 50.71302,-14.39466 53.70868,-18.09689 2.17923,0.69067 4.99277,1.67734 7.14535,2.24889 2.01043,-2.73067 5.19799,-6.09778 7.51492,-8.69067 7.80364,-2.00533 21.82603,-3.44266 29.86599,-3.792 9.8887,-1.59377 33.87887,1.75912 43.85375,3.48445 3.13513,3.2 5.31081,5.61955 8.17676,9.05422 2.63764,-0.97244 5.44763,-1.82133 8.13591,-2.67733 z"
     id="path153"
     style="stroke-width:0.888641" />
  <path
     fill="#336a78"
     d="m 202.43342,113.18401 c 7.80364,-2.00533 21.82603,-3.44266 29.86599,-3.792 l 6.70826,0.12445 c 0.0551,30.08 -0.66985,61.49423 -0.0533,91.35112 l -0.2292,0.48711 c -9.48626,-0.20089 -27.16439,1.70667 -37.60124,2.21689 -1.13714,0.53067 -2.94058,1.44622 -4.05107,1.86667 -2.50882,-1.15467 -3.24796,-1.69245 -5.47428,-3.272 -3.36345,-2.71645 -9.35744,-5.73334 -10.22007,-9.31467 -2.89882,1.58756 -5.61642,4.40089 -7.94756,6.74133 -0.0302,-8.184 0.20255,-16.39466 -0.38734,-24.54311 -2.38889,-1.92089 -3.65219,-2.95556 -5.72481,-5.18133 -10.94056,-10.68089 -22.53675,-21.34845 -33.25432,-32.14579 7.64995,-2.42666 50.71302,-14.39466 53.70868,-18.09689 2.17923,0.69067 4.99277,1.67734 7.14535,2.24889 2.01043,-2.73067 5.19799,-6.09778 7.51492,-8.69067 z"
     id="path155"
     style="stroke-width:0.888641" />
  <path
     fill="#235466"
     d="m 134.06447,137.72268 c 7.64995,-2.42666 50.71302,-14.39466 53.70868,-18.09689 2.17923,0.69067 4.99277,1.67734 7.14535,2.24889 -1.04386,1.60889 -4.23941,5.728 -5.62886,6.80089 -2.63142,3.51645 -5.20509,7.07556 -7.71925,10.67645 -2.86684,1.92889 -8.59964,8.54311 -9.73589,11.90222 0.84219,3.448 1.24641,19.58845 1.2091,23.79556 -2.38889,-1.92089 -3.65219,-2.95556 -5.72481,-5.18133 -10.94056,-10.68089 -22.53675,-21.34845 -33.25432,-32.14579 z"
     id="path157"
     style="stroke-width:0.888641" />
  <path
     fill="#0a2a41"
     d="m 167.31879,169.86847 c 2.80821,-3.87467 1.09362,-17.0009 3.598,-21.49423 3.25684,-5.84444 11.93733,-17.37156 18.37285,-19.69867 -2.63142,3.51645 -5.20509,7.07556 -7.71925,10.67645 -2.86684,1.92889 -8.59964,8.54311 -9.73589,11.90222 0.84219,3.448 1.24641,19.58845 1.2091,23.79556 -2.38889,-1.92089 -3.65219,-2.95556 -5.72481,-5.18133 z"
     id="path159"
     style="stroke-width:0.888641" />
  <path
     fill="#417d87"
     d="m 199.404,177.04358 c 8.25761,-2.75911 31.13017,-12.44267 38.82632,-16.37423 -9.04739,16.46223 -27.33141,29.34134 -37.1064,42.90223 -1.13714,0.53067 -2.94058,1.44622 -4.05107,1.86667 -2.50882,-1.15467 -3.24796,-1.69245 -5.47428,-3.272 -3.36345,-2.71645 -9.35744,-5.73334 -10.22007,-9.31467 8.16433,-6.02845 10.88459,-8.40178 18.0255,-15.808 z"
     id="path161"
     style="stroke-width:0.888641" />
  <path
     fill="#123c52"
     d="m 171.8345,151.25424 c 3.87428,0.19822 6.95345,0.15822 10.80374,0.0667 4.72092,7.50311 11.48515,17.75556 16.82084,24.77956 l -0.0551,0.94311 c -7.14091,7.40622 -9.86117,9.77955 -18.0255,15.808 -2.89882,1.58756 -5.61642,4.40089 -7.94756,6.74133 -0.0302,-8.184 0.20255,-16.39466 -0.38734,-24.54311 0.0373,-4.20711 -0.36691,-20.34756 -1.2091,-23.79556 z"
     id="path163"
     style="stroke-width:0.888641" />
  <path
     fill="#235466"
     d="m 182.59205,150.97602 c 10.72023,-8.15911 20.88167,-16.48178 32.37748,-23.82667 -3.59355,12.12356 -8.99587,24.88445 -12.14877,37.44 -0.88662,3.528 -2.67407,8.04978 -3.36168,11.51112 -5.33569,-7.024 -12.09992,-17.27645 -16.82084,-24.77956 -3.85029,0.0916 -6.92946,0.13155 -10.80374,-0.0667 1.13625,-3.35911 6.86905,-9.97333 9.73589,-11.90222 -1.96601,5.384 -1.39477,6.27111 1.02166,11.624 z"
     id="path165"
     style="stroke-width:0.888641" />
  <path
     fill="#64a9a4"
     d="m 232.29941,109.39201 c 9.8887,-1.59377 33.87887,1.75912 43.85375,3.48445 3.13513,3.2 5.31081,5.61955 8.17676,9.05422 5.2282,4.22311 10.91747,14.19645 15.33722,19.61334 2.35247,2.81689 5.96201,6.87733 7.77788,9.90311 -3.53847,0.003 -7.47494,0.0951 -10.97165,-0.16978 -5.31259,7.80711 -11.9249,17.06223 -16.74177,25.07556 l 0.20966,0.86311 c 2.05841,1.75645 5.82342,5.79734 7.37811,6.968 2.98411,2.84445 6.26406,5.36089 9.78209,7.50756 l 0.398,0.65867 c -2.23697,3.30755 -5.89093,6.29422 -8.87149,9.12622 -3.55801,2.82933 -5.00343,4.75289 -9.38765,2.51289 -10.20142,-2.13333 -29.26366,-1.23378 -40.28596,-3.12178 -0.61654,-29.85689 0.10839,-61.27112 0.0533,-91.35112 z"
     id="path167"
     style="stroke-width:0.888641" />
  <path
     fill="#93c5b2"
     d="m 239.43587,160.79646 c 12.64894,3.74489 28.09632,12.65778 40.50539,16.41956 2.05841,1.75645 5.82342,5.79734 7.37811,6.968 2.98411,2.84445 6.26406,5.36089 9.78209,7.50756 l 0.398,0.65867 c -2.23697,3.30755 -5.89093,6.29422 -8.87149,9.12622 -3.55801,2.82933 -5.00343,4.75289 -9.38765,2.51289 -7.37188,-6.62222 -35.49396,-35.66756 -39.80445,-43.1929 z"
     id="path169"
     style="stroke-width:0.888641" />
  <path
     fill="#53979a"
     d="m 264.05768,127.22224 c 10.01575,7.30844 21.90422,16.07644 32.04967,22.97333 l 0.93726,-0.36444 c 1.92159,-2.41778 2.46706,-5.28178 2.62253,-8.28711 2.35247,2.81689 5.96201,6.87733 7.77788,9.90311 -3.53847,0.003 -7.47494,0.0951 -10.97165,-0.16978 -5.31259,7.80711 -11.9249,17.06223 -16.74177,25.07556 -1.4081,-1.94667 -7.02541,-23.144 -8.23451,-27.09156 -2.27873,-7.41244 -4.75912,-14.76178 -7.43941,-22.03911 z"
     id="path171"
     style="stroke-width:0.888641" />
  <defs
     id="defs178">
    <linearGradient
       id="gradient_7"
       gradientUnits="userSpaceOnUse"
       x1="554.24054"
       y1="391.09198"
       x2="553.52979"
       y2="345.5043"
       gradientTransform="matrix(0.888393,0,0,0.888889,-156.37874,-211.04714)">
      <stop
         offset="0"
         stop-color="#589B9F"
         id="stop173" />
      <stop
         offset="1"
         stop-color="#6BB3A8"
         id="stop175" />
    </linearGradient>
  </defs>
  <path
     fill="url(#gradient_7)"
     d="m 292.46583,119.25335 c 1.78833,-1.03467 16.59074,-6.28089 19.38651,-7.27022 20.44814,-7.23645 49.36267,-18.306674 71.35928,-17.244451 -1.39478,4.028444 -2.93969,5.469331 -5.72658,8.711111 l 0.0338,3.44089 c -2.26985,2.64978 -18.12322,19.776 -18.23338,20.55467 l 0.191,0.192 c -1.6222,1.42667 -2.86862,1.32089 -5.05495,1.18844 l -0.43532,-0.0302 c -2.83042,3.13778 -5.7479,6.19645 -8.748,9.17334 -2.67318,-0.70489 -5.3499,-1.45423 -7.98399,-2.29512 -15.85515,-5.06044 -31.87554,-9.064 -47.61609,-14.50044 1.29883,-0.72445 1.80078,-0.88089 3.22132,-1.36622 z"
     id="path180"
     style="fill:url(#gradient_7);stroke-width:0.888641" />
  <defs
     id="defs187">
    <linearGradient
       id="gradient_8"
       gradientUnits="userSpaceOnUse"
       x1="576.78638"
       y1="367.64343"
       x2="600.46637"
       y2="368.11832"
       gradientTransform="matrix(0.888393,0,0,0.888889,-156.37874,-211.04714)">
      <stop
         offset="0"
         stop-color="#164256"
         id="stop182" />
      <stop
         offset="1"
         stop-color="#36717B"
         id="stop184" />
    </linearGradient>
  </defs>
  <path
     fill="url(#gradient_8)"
     d="m 353.98615,128.79557 c 7.86406,-9.09156 14.96943,-16.87467 23.49889,-25.34578 l 0.0338,3.44089 c -2.26985,2.64978 -18.12322,19.776 -18.23338,20.55467 l 0.191,0.192 c -1.6222,1.42667 -2.86862,1.32089 -5.05495,1.18844 z"
     id="path189"
     style="fill:url(#gradient_8);stroke-width:0.888641" />
  <defs
     id="defs196">
    <linearGradient
       id="gradient_9"
       gradientUnits="userSpaceOnUse"
       x1="535.38995"
       y1="414.89008"
       x2="557.12225"
       y2="429.73276"
       gradientTransform="matrix(0.888393,0,0,0.888889,-156.37874,-211.04714)">
      <stop
         offset="0"
         stop-color="#000E22"
         id="stop191" />
      <stop
         offset="1"
         stop-color="#285F70"
         id="stop193" />
    </linearGradient>
  </defs>
  <path
     fill="url(#gradient_9)"
     d="m 359.47642,127.63735 c 7.43141,-1.69689 19.76764,-4.792 27.07911,-5.82845 -1.30771,1.31112 -10.30714,2.95112 -12.66227,3.47645 -2.32492,3.67289 -21.04336,18.18222 -15.2235,23.99911 l -0.85019,0.52356 -0.72848,-0.22933 c -0.79689,-0.25423 -1.02165,-0.34223 -1.77235,-0.76089 -2.2041,1.57689 -6.36622,8.77866 -8.28248,11.23822 -0.97368,1.24978 -2.18989,2.36978 -3.26751,3.64533 0.0773,2.34045 1.6222,1.208 1.71993,3.21067 1.0865,0.992 2.56567,2.18222 3.29949,3.40533 l -0.11016,1.71023 c -2.09928,-0.55645 -3.30483,-4.78311 -6.06062,-5.72 -2.13747,1.73777 -2.33736,2.688 -3.92403,4.24266 -6.68161,6.54756 -11.9942,13.61512 -18.72999,20.26134 0.90083,1.47111 3.75257,5.65156 3.68505,7.11733 -1.16202,-0.84 -2.71226,-3.64622 -4.14613,-5.02577 -6.2303,0.472 -5.63419,12.76977 -6.5972,14.31733 -2.0131,-1.02844 -1.74214,-3.57689 -4.78755,-5.30844 l -0.44953,-0.21245 -1.9367,-2.60889 c 0.11905,-7.79733 0.12882,-15.88533 0.61477,-23.64533 11.36343,-9.87734 24.16873,-23.5449 35.91329,-34.20268 l 2.97878,-3.27377 c 3.0001,-2.97689 5.91758,-6.03556 8.748,-9.17334 l 0.43532,0.0302 c 2.18633,0.13245 3.43275,0.23823 5.05495,-1.18844 z"
     id="path198"
     style="fill:url(#gradient_9);stroke-width:0.888641" />
  <defs
     id="defs205">
    <linearGradient
       id="gradient_10"
       gradientUnits="userSpaceOnUse"
       x1="577.6897"
       y1="385.56442"
       x2="585.92487"
       y2="391.85431"
       gradientTransform="matrix(0.888393,0,0,0.888889,-156.37874,-211.04714)">
      <stop
         offset="0"
         stop-color="#124254"
         id="stop200" />
      <stop
         offset="1"
         stop-color="#26616F"
         id="stop202" />
    </linearGradient>
  </defs>
  <path
     fill="url(#gradient_10)"
     d="m 359.47642,127.63735 c 7.43141,-1.69689 19.76764,-4.792 27.07911,-5.82845 -1.30771,1.31112 -10.30714,2.95112 -12.66227,3.47645 -2.32492,3.67289 -21.04336,18.18222 -15.2235,23.99911 l -0.85019,0.52356 c -1.80344,-1.72089 -5.92647,-3.464 -8.37932,-4.72178 -0.41932,-0.52178 -0.80844,-0.496 -1.63731,-0.808 -2.32315,0.64711 -7.2484,5.62933 -9.92602,7.46489 -0.12526,-0.14933 -0.65474,-0.57156 -0.39,-0.83733 3.44874,-3.45689 16.32689,-19.18489 19.70367,-20.86667 l -0.39356,-0.40534 c -6.59721,0.94312 -8.73823,10.11645 -14.53766,11.60889 l 2.97878,-3.27377 c 3.0001,-2.97689 5.91758,-6.03556 8.748,-9.17334 l 0.43532,0.0302 c 2.18633,0.13245 3.43275,0.23823 5.05495,-1.18844 z"
     id="path207"
     style="fill:url(#gradient_10);stroke-width:0.888641" />
  <defs
     id="defs214">
    <linearGradient
       id="gradient_11"
       gradientUnits="userSpaceOnUse"
       x1="562.22058"
       y1="408.19522"
       x2="569.01807"
       y2="413.37103"
       gradientTransform="matrix(0.888393,0,0,0.888889,-156.37874,-211.04714)">
      <stop
         offset="0"
         stop-color="#225163"
         id="stop209" />
      <stop
         offset="1"
         stop-color="#37707B"
         id="stop211" />
    </linearGradient>
  </defs>
  <path
     fill="url(#gradient_11)"
     d="m 349.44025,145.08624 c 2.45285,1.25778 6.57588,3.00089 8.37932,4.72178 l -0.72848,-0.22933 c -0.79689,-0.25423 -1.02165,-0.34223 -1.77235,-0.76089 -2.2041,1.57689 -6.36622,8.77866 -8.28248,11.23822 -0.97368,1.24978 -2.18989,2.36978 -3.26751,3.64533 0.0773,2.34045 1.6222,1.208 1.71993,3.21067 -2.33559,-0.944 -6.77489,-7.26578 -8.48416,-9.59733 2.37201,-3.03467 9.01541,-10.57423 12.43573,-12.22845 z"
     id="path216"
     style="fill:url(#gradient_11);stroke-width:0.888641" />
  <path
     fill="#235466"
     d="m 287.31937,184.18402 0.45574,0.13956 c 2.27607,0.67289 5.01409,0.11289 7.09293,1.83378 3.04008,2.51555 2.18012,2.89511 2.23342,5.53422 -3.51803,-2.14667 -6.79798,-4.66311 -9.78209,-7.50756 z"
     id="path218"
     style="stroke-width:0.888641" />
  <defs
     id="defs225">
    <linearGradient
       id="gradient_12"
       gradientUnits="userSpaceOnUse"
       x1="527.12799"
       y1="494.13635"
       x2="638.85565"
       y2="518.71234"
       gradientTransform="matrix(0.888393,0,0,0.888889,-156.37874,-211.04714)">
      <stop
         offset="0"
         stop-color="#3E7782"
         id="stop220" />
      <stop
         offset="1"
         stop-color="#5EA4A5"
         id="stop222" />
    </linearGradient>
  </defs>
  <path
     fill="url(#gradient_12)"
     d="m 319.96337,190.81158 c 6.73579,-6.64622 12.04838,-13.71378 18.72999,-20.26134 1.58667,-1.55466 1.78656,-2.50489 3.92403,-4.24266 2.75579,0.93689 3.96134,5.16355 6.06062,5.72 l 0.11016,-1.71023 c 3.82364,4.47023 30.75261,39.3289 34.00235,39.63557 0.93814,0.088 1.92693,-0.0889 2.85885,-0.20356 l 0.0187,0.56089 c -1.93581,0.39378 -1.70483,0.0275 -2.77979,1.21067 l 31.28476,38.36356 c 4.1488,5.096 12.88881,15.47022 16.30468,20.81778 -5.86428,3.18133 -18.62694,9.66489 -23.74586,13.18844 l -0.5588,0.26578 c -5.59865,3.16178 -9.69592,6.36356 -14.7562,10.30933 -6.11481,4.78934 -15.76187,13.80623 -21.38984,17.59823 -4.69516,-10.04356 -9.38143,-22.05067 -13.4636,-32.42756 -3.94002,-10.01245 -9.29703,-22.84889 -11.51624,-33.20623 -1.41432,-11.00444 -15.93155,-38.19467 -21.39872,-48.50134 0.0675,-1.46577 -2.78422,-5.64622 -3.68505,-7.11733 z"
     id="path227"
     style="fill:url(#gradient_12);stroke-width:0.888641" />
  <path
     fill="#336a78"
     d="m 368.36568,213.60803 c 4.04575,-0.98134 8.67871,-2.19645 12.80175,-2.83734 1.06074,-0.16444 0.84486,-0.0169 1.72081,0.75023 l 31.28476,38.36356 c 4.1488,5.096 12.88881,15.47022 16.30468,20.81778 -5.86428,3.18133 -18.62694,9.66489 -23.74586,13.18844 -10.78953,-22.20356 -26.25556,-48.32445 -38.36614,-70.28267 z"
     id="path229"
     style="stroke-width:0.888641" />
  <path
     fill="#336a78"
     d="m 352.45456,245.32803 c 4.92881,2.68 11.4736,6.16089 15.99019,9.45956 12.53611,9.15555 24.94163,20.64622 37.72827,29.36889 -5.59865,3.16178 -9.69592,6.36356 -14.7562,10.30933 -7.84007,-9.728 -15.58597,-19.53155 -23.23592,-29.41067 -5.03364,-6.51022 -10.1801,-13.72266 -15.72634,-19.72711 z"
     id="path231"
     style="stroke-width:0.888641" />
  <defs
     id="defs238">
    <linearGradient
       id="gradient_13"
       gradientUnits="userSpaceOnUse"
       x1="582.84784"
       y1="385.61649"
       x2="641.55792"
       y2="403.43958"
       gradientTransform="matrix(0.888393,0,0,0.888889,-156.37874,-211.04714)">
      <stop
         offset="0"
         stop-color="#2D6A76"
         id="stop233" />
      <stop
         offset="1"
         stop-color="#55999D"
         id="stop235" />
    </linearGradient>
  </defs>
  <path
     fill="url(#gradient_13)"
     d="m 386.55553,121.8089 c 3.15468,-0.99555 23.43847,-5.74933 25.60704,-5.01244 0.79067,2.37244 -2.7247,3.41244 -3.07295,5.63556 -1.48273,9.464 -1.26863,19.23555 -1.40011,28.80533 -0.1297,8.55734 -0.4824,17.10934 -1.05896,25.64801 -12.06971,-7.97601 -27.34652,-15.57956 -40.29573,-22.41423 -1.60178,-0.84533 -7.89337,-3.31822 -8.51525,-4.66311 l 0.85019,-0.52356 c -5.81986,-5.81689 12.89858,-20.32622 15.2235,-23.99911 2.35513,-0.52533 11.35456,-2.16533 12.66227,-3.47645 z"
     id="path240"
     style="fill:url(#gradient_13);stroke-width:0.888641" />
  <path
     fill="#53979a"
     d="m 385.64937,209.74936 c 1.95713,-0.776 12.1008,-2.34489 14.59807,-2.69422 9.43829,4.73689 44.8443,36.28533 52.50669,44.72089 -5.61197,8.65156 -13.39519,13.94134 -22.27645,18.92623 -3.41587,-5.34756 -12.15588,-15.72178 -16.30468,-20.81778 l -31.28476,-38.36356 c 1.07496,-1.18312 0.84398,-0.81689 2.77979,-1.21067 z"
     id="path242"
     style="stroke-width:0.888641" />
  <path
     fill="#417d87"
     d="m 400.24744,207.05514 17.81761,-3.64978 c 7.76545,5.80267 15.4154,11.75911 22.94542,17.86578 5.32503,4.27467 12.19053,10.10044 17.87891,13.67467 -1.50228,4.91555 -3.61043,12.49689 -6.13525,16.83022 -7.66239,-8.43556 -43.0684,-39.984 -52.50669,-44.72089 z"
     id="path244"
     style="stroke-width:0.888641" />
  <path
     fill="#417d87"
     d="m 435.17195,177.89069 c 2.95213,0.11555 39.42688,8.42311 42.72548,9.81867 0.24165,0.95911 0.51261,1.96089 0.72493,2.92089 -2.12326,3.192 -5.27794,7.64711 -7.01297,10.93155 -3.15469,-1.81155 -8.37399,-3.24533 -11.60686,-5.20444 -3.65751,-2.21511 -6.2987,-5.99911 -9.67815,-8.74667 -2.76024,-2.24444 -13.72745,-7.48622 -15.15243,-9.72 z"
     id="path246"
     style="stroke-width:0.888641" />
  <path
     fill="#53979a"
     d="m 425.69901,179.08269 c 2.17301,-0.54756 7.50426,-2.13867 9.47294,-1.192 1.42498,2.23378 12.39219,7.47556 15.15243,9.72 3.37945,2.74756 6.02064,6.53156 9.67815,8.74667 3.23287,1.95911 8.45217,3.39289 11.60686,5.20444 l -4.10615,7.8 c -5.77278,-3.80711 -13.49469,-7.81244 -19.74987,-11.65689 0.0284,-0.792 0.0364,-1.58489 0.024,-2.37689 -0.19278,-9.6 -9.52535,-8.58933 -16.10301,-11.82933 -2.90594,-1.432 -3.65574,-2.17156 -5.97534,-4.416 z"
     id="path248"
     style="stroke-width:0.888641" />
  <path
     fill="#417d87"
     d="m 383.21162,94.738679 2.04774,0.671111 c -1.14336,2.476444 -1.03142,5.30578 -3.0614,7.61333 -1.26685,1.44 -3.14136,2.72356 -4.67916,3.86756 l -0.0338,-3.44089 c 2.78689,-3.24178 4.3318,-4.682667 5.72658,-8.711111 z"
     id="path250"
     style="stroke-width:0.888641" />
  <defs
     id="defs257">
    <linearGradient
       id="gradient_14"
       gradientUnits="userSpaceOnUse"
       x1="377.68179"
       y1="482.07999"
       x2="249.92818"
       y2="504.09738"
       gradientTransform="matrix(0.888393,0,0,0.888889,-156.37874,-211.04714)">
      <stop
         offset="0"
         stop-color="#031B32"
         id="stop252" />
      <stop
         offset="1"
         stop-color="#367689"
         id="stop254" />
    </linearGradient>
  </defs>
  <path
     fill="url(#gradient_14)"
     d="m 96.788385,94.648901 c 22.629145,-1.125334 63.320215,14.403559 85.061855,22.771559 1.64974,0.58755 4.46417,1.496 5.92291,2.20533 -2.99566,3.70223 -46.05873,15.67023 -53.70868,18.09689 10.71757,10.79734 22.31376,21.4649 33.25432,32.14579 2.07262,2.22577 3.33592,3.26044 5.72481,5.18133 0.58989,8.14845 0.35713,16.35911 0.38734,24.54311 l -1.98645,2.76978 c -2.09483,2.10311 -7.72635,10.56089 -9.68704,13.40711 6.7358,12.88801 6.02331,29.03201 19.24171,40.21601 1.7679,1.496 4.20387,4.82756 6.35378,5.93867 0.74981,-0.70311 0.84753,-2.33867 1.09628,-3.55734 0.93015,1.81334 -3.1458,18.20089 -3.72237,21.51823 -2.64119,10.54133 -5.73457,18.43645 -8.76755,28.44267 0.76935,1.38933 2.39422,4.02222 2.71849,5.41067 -3.41321,6.96089 -10.59942,22.44533 -15.38253,28.02222 -6.1539,-4.05867 -12.89946,-8.95733 -19.03915,-12.70489 -4.6383,-2.832 -11.37676,-5.46756 -16.33577,-8.33422 -6.16722,-2.67734 -12.30247,-5.43023 -18.40306,-8.25778 C 104.95627,309.45871 92.913215,298.59737 87.612174,294.37693 73.725703,283.35381 63.439,279.02581 48.063583,270.47559 30.276178,260.39559 26.117611,254.80981 20.139614,235.84181 17.611248,226.64892 15.26056,217.34047 11.089555,208.77691 L 6.5676342,200.49247 C 5.556643,198.47825 1.8333879,193.08625 0.39863321,190.85247 -1.0254608,184.37425 1.5233388,168.4658 5.5433171,163.20713 13.5966,152.67202 27.652754,143.76002 37.584987,134.78135 c 10.101029,-9.12978 19.92399,-19.93334 30.505639,-28.032 5.893599,-4.51111 21.579066,-10.518227 28.697759,-12.100449 z"
     id="path259"
     style="fill:url(#gradient_14);stroke-width:0.888641" />
  <path
     fill="#336a78"
     d="m 96.788385,94.648901 c 22.629145,-1.125334 63.320215,14.403559 85.061855,22.771559 1.64974,0.58755 4.46417,1.496 5.92291,2.20533 -2.99566,3.70223 -46.05873,15.67023 -53.70868,18.09689 -2.85707,-2.984 -5.68661,-6.15289 -8.48149,-9.20622 -2.99389,1.42756 -8.48238,-0.0604 -11.53312,-1.08978 l 0.0124,-0.80978 c -3.94535,-1.21155 -43.512602,-10.20355 -46.163567,-9.77333 -0.417544,3.52 4.160345,55.72801 5.05851,58.53601 l 0.6965,0.47111 c 1.217099,-0.41867 13.982418,-7.472 15.235052,-8.46756 4.574335,-3.63467 34.656215,-17.43822 35.912395,-19.77156 1.18423,-0.18488 2.32493,-0.64 3.0925,0.10489 4.0715,3.94311 7.59487,9.10667 11.46205,13.22223 -3.92937,2.73689 -7.54246,8.06489 -10.74334,12.11555 -9.8887,12.51201 -20.41971,24.92801 -31.233233,36.64801 -0.529483,0.57422 -3.43897,0.23733 -4.223421,0.16444 0.76846,0.57334 1.094501,0.64889 2.031755,0.83911 l 0.230094,0.90312 c -9.765216,14.27822 -25.019812,30.10755 -35.702738,44.15822 -3.387442,4.45423 -8.695591,10.2 -11.651274,14.70845 -17.787405,-10.08 -21.945972,-15.66578 -27.923969,-34.63378 -2.528366,-9.19289 -4.879054,-18.50134 -9.050059,-27.0649 L 6.5676342,200.49247 C 5.556643,198.47825 1.8333879,193.08625 0.39863321,190.85247 -1.0254608,184.37425 1.5233388,168.4658 5.5433171,163.20713 13.5966,152.67202 27.652754,143.76002 37.584987,134.78135 c 10.101029,-9.12978 19.92399,-19.93334 30.505639,-28.032 5.893599,-4.51111 21.579066,-10.518227 28.697759,-12.100449 z"
     id="path261"
     style="stroke-width:0.888641" />
  <defs
     id="defs268">
    <linearGradient
       id="gradient_15"
       gradientUnits="userSpaceOnUse"
       x1="227.60883"
       y1="477.87003"
       x2="259.12476"
       y2="514.22876"
       gradientTransform="matrix(0.888393,0,0,0.888889,-156.37874,-211.04714)">
      <stop
         offset="0"
         stop-color="#174359"
         id="stop263" />
      <stop
         offset="1"
         stop-color="#376A7B"
         id="stop265" />
    </linearGradient>
  </defs>
  <path
     fill="url(#gradient_15)"
     d="m 61.087424,203.38847 c 8.456613,1.79644 24.453018,4.27111 32.068322,6.47822 0.76846,0.57334 1.094501,0.64889 2.031755,0.83911 l 0.230094,0.90312 c -9.765216,14.27822 -25.019812,30.10755 -35.702738,44.15822 -3.387442,4.45423 -8.695591,10.2 -11.651274,14.70845 -17.787405,-10.08 -21.945972,-15.66578 -27.923969,-34.63378 0.92304,-1.936 37.027332,-30.35467 40.94781,-32.45334 z"
     id="path270"
     style="fill:url(#gradient_15);stroke-width:0.888641" />
  <path
     fill="#417d87"
     d="m 96.788385,94.648901 c 22.629145,-1.125334 63.320215,14.403559 85.061855,22.771559 -2.53548,2.98044 -38.0481,11.62756 -44.72792,13.368 -5.50093,-5.66311 -34.83301,-34.512892 -40.333935,-36.139559 z"
     id="path272"
     style="stroke-width:0.888641" />
  <defs
     id="defs279">
    <linearGradient
       id="gradient_16"
       gradientUnits="userSpaceOnUse"
       x1="179.15022"
       y1="441.34671"
       x2="229.369"
       y2="455.58774"
       gradientTransform="matrix(0.888393,0,0,0.888889,-156.37874,-211.04714)">
      <stop
         offset="0"
         stop-color="#113F54"
         id="stop274" />
      <stop
         offset="1"
         stop-color="#265768"
         id="stop276" />
    </linearGradient>
  </defs>
  <path
     fill="url(#gradient_16)"
     d="m 0.39863321,190.85247 c 0.11904467,-1.50045 0.006219,-2.92889 0.73292419,-4.09156 11.5357836,-2.09955 38.0010106,-10.216 47.8603966,-8.76711 1.219763,0.17956 1.900272,0.16889 2.641192,1.152 -2.627867,4.06311 -17.853146,5.27556 -22.309325,8.81956 -11.446944,7.81244 -7.683711,8.35911 -22.7561868,12.52711 -1.0109912,-2.01422 -4.7342463,-7.40622 -6.16900099,-9.64 z"
     id="path281"
     style="fill:url(#gradient_16);stroke-width:0.888641" />
  <path
     fill="#235466"
     d="m 6.5676342,200.49247 c 15.0724758,-4.168 11.3092428,-4.71467 22.7561868,-12.52711 -1.353023,3.06489 -4.74313,7.82578 -5.238854,10.72266 2.320483,0.40978 2.789554,-0.68622 4.116814,0.0747 -1.269514,2.11911 -14.16898,8.62667 -17.112226,10.01422 z"
     id="path283"
     style="stroke-width:0.888641" />
  <path
     fill="#123c52"
     d="m 94.399497,94.126234 c 9.777653,13.190226 20.686233,21.590226 31.183483,34.390226 -2.99389,1.42756 -8.48238,-0.0604 -11.53312,-1.08978 l 0.0124,-0.80978 c 2.55946,0.57067 4.85773,1.11734 7.38343,1.81867 -9.92601,-9.40533 -23.146188,-20.98489 -27.046233,-34.309336 z"
     id="path285"
     style="stroke-width:0.888641" />
  <path
     fill="#123c52"
     d="m 95.417595,211.60892 c 1.164683,-0.92712 1.351246,-1.17778 3.244411,-0.80178 3.845854,0.76355 7.823184,1.65422 11.659274,2.48089 -2.94769,6.936 -7.63663,14.54222 -11.176876,21.30044 -8.604087,16.42578 -19.237262,33.3609 -27.366947,49.92179 8.302921,-6.18756 16.56853,-12.42489 24.797714,-18.71023 3.285277,-2.496 9.480929,-6.90666 12.298029,-9.43111 5.60576,-3.78489 11.75343,-7.84889 17.55908,-11.29244 -11.66815,14.536 -22.70821,29.59111 -34.619784,43.94578 -1.421429,1.71289 -2.911264,3.552 -4.200322,5.35467 C 73.725703,283.35381 63.439,279.02581 48.063583,270.47559 c 2.955683,-4.50845 8.263832,-10.25422 11.651274,-14.70845 10.682926,-14.05067 25.937522,-29.88 35.702738,-44.15822 z"
     id="path287"
     style="stroke-width:0.888641" />
  <path
     fill="#235466"
     d="m 133.88857,239.40181 c 4.52103,-10.02045 10.02018,-22.88889 15.88802,-32.25601 1.81498,-2.89866 1.3548,-1.61689 2.99832,-5.39289 l 0.50194,-0.004 c -6.04107,12.75022 -17.93665,31.52978 -19.67257,45.02223 -3.63708,15.87733 -11.23551,31.77244 -17.00473,47.01422 -1.77679,4.69601 -6.11392,14.17956 -7.08227,18.67823 -4.56101,-3.00533 -16.604065,-13.86667 -21.905106,-18.08711 1.289058,-1.80267 2.778893,-3.64178 4.200322,-5.35467 11.911574,-14.35467 22.951634,-29.40978 34.619784,-43.94578 -5.80565,3.44355 -11.95332,7.50755 -17.55908,11.29244 l -0.34381,-0.58044 c 3.06673,-2.32978 22.44169,-15.25245 25.35918,-16.38667 z"
     id="path289"
     style="stroke-width:0.888641" />
  <path
     fill="#123c52"
     d="m 133.60428,246.77159 c 1.33081,2.01333 -0.14925,25.52444 -0.65563,28.87644 -1.37524,9.10401 -1.46852,38.74756 -5.02831,45.07379 -6.16722,-2.67734 -12.30247,-5.43023 -18.40306,-8.25778 0.96835,-4.49867 5.30548,-13.98222 7.08227,-18.67823 5.76922,-15.24178 13.36765,-31.13689 17.00473,-47.01422 z"
     id="path291"
     style="stroke-width:0.888641" />
  <path
     fill="#0a2a41"
     d="m 124.80119,147.61157 -0.56413,-0.44888 c 2.31427,-1.60089 4.35491,-2.91823 7.29193,-2.94667 2.03354,1.87911 9.04917,10.00711 10.16677,12.97067 0.24342,0.64711 -1.68084,3.57866 -2.20143,4.40089 l -0.13859,-0.64889 c -3.86718,-4.11556 -7.39055,-9.27912 -11.46205,-13.22223 -0.76757,-0.74489 -1.90827,-0.28977 -3.0925,-0.10489 z"
     id="path293"
     style="stroke-width:0.888641" />
  <path
     fill="#0a2a41"
     d="m 288.14024,506.4694 c 6.56523,2.35466 17.22328,5.76711 23.30166,8.34755 -1.30949,3.94045 -2.2192,6.97512 -3.27017,11.00267 -2.67584,8.66667 -4.6081,16.456 -9.71369,24.10667 -3.7126,5.552 -6.26761,7.736 -11.86893,11.47822 -13.15888,8.04445 -36.85054,13.71378 -49.73135,2.49067 -11.11824,-9.68711 -11.95422,-20.944 -13.13489,-34.608 l 0.99588,0.003 c 3.36079,-0.18933 9.07849,0.57423 13.72834,0.46489 v 2.98756 l 0.0773,0.66489 c 1.11049,4.25155 2.33825,10.71467 5.15357,13.91378 l 1.15402,0.52711 c 5.5649,-4.72178 7.1489,-6.58311 11.27016,-12.34578 l 0.9639,-0.97956 c -0.0844,-1.31022 -0.15724,-1.25689 0.37668,-2.43377 2.67584,4.17066 3.76323,5.27822 8.75334,6.36177 l 0.62098,0.13245 c 4.82398,-1.12356 8.20698,-2.16356 11.92224,-5.66489 1.43209,-1.87111 2.39599,-3.73511 3.54735,-5.78311 l 3.29327,-8.55912 c 0.80222,-4.04622 1.65597,-8.08266 2.56035,-12.10666 z"
     id="path295"
     style="stroke-width:0.888641" />
  <defs
     id="defs302">
    <linearGradient
       id="gradient_17"
       gradientUnits="userSpaceOnUse"
       x1="522.34546"
       y1="832.4433"
       x2="496.21069"
       y2="838.80371"
       gradientTransform="matrix(0.888393,0,0,0.888889,-156.37874,-211.04714)">
      <stop
         offset="0"
         stop-color="#082C3E"
         id="stop297" />
      <stop
         offset="1"
         stop-color="#25576C"
         id="stop299" />
    </linearGradient>
  </defs>
  <path
     fill="url(#gradient_17)"
     d="m 288.14024,506.4694 c 6.56523,2.35466 17.22328,5.76711 23.30166,8.34755 -1.30949,3.94045 -2.2192,6.97512 -3.27017,11.00267 -2.67584,8.66667 -4.6081,16.456 -9.71369,24.10667 -1.88162,-1.98222 -5.49205,-8.34933 -7.25284,-11.15911 -2.79933,-4.46578 -6.00465,-7.67289 -8.91858,-11.632 l 3.29327,-8.55912 c 0.80222,-4.04622 1.65597,-8.08266 2.56035,-12.10666 z"
     id="path304"
     style="fill:url(#gradient_17);stroke-width:0.888641" />
  <path
     fill="#235466"
     d="m 288.14024,506.4694 c 6.56523,2.35466 17.22328,5.76711 23.30166,8.34755 -1.30949,3.94045 -2.2192,6.97512 -3.27017,11.00267 l -0.22121,-0.80267 c -2.05041,-1.32088 -8.39354,-0.20177 -11.62107,-1.47377 -3.72859,-1.46934 -5.89538,-6.76978 -8.80398,-7.09778 l -1.1709,2.392 -0.77468,-0.26134 c 0.80222,-4.04622 1.65597,-8.08266 2.56035,-12.10666 z"
     id="path306"
     style="stroke-width:0.888641" />
  <path
     fill="#235466"
     d="m 256.10213,535.50229 0.9639,-0.97956 c -0.0844,-1.31022 -0.15724,-1.25689 0.37668,-2.43377 2.67584,4.17066 3.76323,5.27822 8.75334,6.36177 l 0.62098,0.13245 c 4.82398,-1.12356 8.20698,-2.16356 11.92224,-5.66489 l 0.51615,0.0196 c 0.10572,1.944 2.95391,6.88267 3.93736,10.53601 -2.45729,2.39022 -9.80697,8.82666 -13.42717,7.06044 l -0.52326,-0.25155 -0.37046,1.24711 0.14747,0.92177 c -0.29051,2.74134 0.19367,2.28089 -1.33081,3.87467 -3.4141,1.21245 -8.65117,1.39467 -11.88848,-0.29155 -1.06696,-0.76534 -0.94969,-0.51645 -2.49727,-0.62845 -2.88372,-1.66044 -4.24385,-2.38044 -6.71981,-4.56089 l -1.75102,-2.99733 c 5.5649,-4.72178 7.1489,-6.58311 11.27016,-12.34578 z"
     id="path308"
     style="stroke-width:0.888641" />
  <path
     fill="#123c52"
     d="m 257.05892,551.51829 c 3.65396,0.94845 8.21764,1.30133 11.81297,0.0116 l 0.14747,0.92177 c -0.29051,2.74134 0.19367,2.28089 -1.33081,3.87467 -3.4141,1.21245 -8.65117,1.39467 -11.88848,-0.29155 z"
     id="path310"
     style="stroke-width:0.888641" />
  <path
     fill="#123c52"
     d="m 256.10213,535.50229 c 1.05541,3.232 -6.64874,12.81422 -9.51914,15.34311 l -1.75102,-2.99733 c 5.5649,-4.72178 7.1489,-6.58311 11.27016,-12.34578 z"
     id="path312"
     style="stroke-width:0.888641" />
  <path
     fill="#123c52"
     d="m 253.3028,555.40629 c 2.72825,-2.79289 4.45795,-11.87378 6.05795,-15.91111 0.36158,2.65955 -1.50583,9.29511 -2.30183,12.02311 l -1.25885,4.51645 c -1.06696,-0.76534 -0.94969,-0.51645 -2.49727,-0.62845 z"
     id="path314"
     style="stroke-width:0.888641" />
  <defs
     id="defs321">
    <linearGradient
       id="gradient_18"
       gradientUnits="userSpaceOnUse"
       x1="509.93707"
       y1="855.80884"
       x2="487.25507"
       y2="846.83411"
       gradientTransform="matrix(0.888393,0,0,0.888889,-156.37874,-211.04714)">
      <stop
         offset="0"
         stop-color="#06263C"
         id="stop316" />
      <stop
         offset="1"
         stop-color="#26536A"
         id="stop318" />
    </linearGradient>
  </defs>
  <path
     fill="url(#gradient_18)"
     d="m 282.28662,527.13518 c 2.91393,3.95911 6.11925,7.16622 8.91858,11.632 1.76079,2.80978 5.37122,9.17689 7.25284,11.15911 -3.7126,5.552 -6.26761,7.736 -11.86893,11.47822 0.45752,-7.80977 -0.65119,-12.28889 -2.60655,-19.84711 -0.38201,-2.45067 -2.3951,-7.50933 -4.72714,-8.61956 l -0.51615,-0.0196 c 1.43209,-1.87111 2.39599,-3.73511 3.54735,-5.78311 z"
     id="path323"
     style="fill:url(#gradient_18);stroke-width:0.888641" />
  <path
     fill="#123c52"
     d="m 279.25542,532.93784 c 2.33204,1.11023 4.34513,6.16889 4.72714,8.61956 -1.07229,2.40356 -0.38734,7.30311 0.17857,9.90845 -1.41166,3.33511 -10.52568,4.35111 -14.03394,5.04266 -0.13149,-1.39111 -0.0604,-3.24089 -0.74892,-4.22044 l -0.35891,0.16355 -0.14747,-0.92177 0.37046,-1.24711 0.52326,0.25155 c 3.6202,1.76622 10.96988,-4.67022 13.42717,-7.06044 -0.98345,-3.65334 -3.83164,-8.59201 -3.93736,-10.53601 z"
     id="path325"
     style="stroke-width:0.888641" />
  <path
     fill="#011e35"
     d="m 224.71875,529.28984 c 3.36079,-0.18933 9.07849,0.57423 13.72834,0.46489 v 2.98756 c -4.76179,0.49067 -11.23906,1.22667 -13.72834,-3.45245 z"
     id="path327"
     style="stroke-width:0.888641" />
  <path
     fill="#6b7c73"
     d="m 292.5902,330.1476 c 1.28995,-3.55467 3.9267,-9.13423 5.50004,-12.76356 1.62576,6.77511 3.9498,12.848 5.87583,19.35645 7.9831,26.97422 20.10878,44.85156 44.56269,59.82667 l 0.31982,0.19556 c 2.12415,0.92266 6.36622,2.232 7.03518,4.43466 l -0.5588,0.74134 c -5.63596,2.024 -21.49378,-3.32445 -27.63524,-5.688 -17.36719,-6.68445 -40.27085,-24.83467 -47.40998,-42.25245 l 1.13803,-0.38045 c 2.43153,-5.84533 8.43441,-15.14933 10.10547,-20.54667 z"
     id="path329"
     style="stroke-width:0.888641" />
  <path
     fill="#d0d2b9"
     d="m 292.5902,330.1476 c 1.28995,-3.55467 3.9267,-9.13423 5.50004,-12.76356 1.62576,6.77511 3.9498,12.848 5.87583,19.35645 7.9831,26.97422 20.10878,44.85156 44.56269,59.82667 l 0.31982,0.19556 c -5.78966,-0.45067 -17.33966,-6.84978 -22.53498,-10.18578 -15.67036,-10.06312 -31.28565,-34.87645 -34.79036,-53.50579 z"
     id="path331"
     style="stroke-width:0.888641" />
  <defs
     id="defs338">
    <linearGradient
       id="gradient_19"
       gradientUnits="userSpaceOnUse"
       x1="360.2428"
       y1="613.78186"
       x2="354.10507"
       y2="691.50153"
       gradientTransform="matrix(0.888393,0,0,0.888889,-156.37874,-211.04714)">
      <stop
         offset="0"
         stop-color="#465556"
         id="stop333" />
      <stop
         offset="1"
         stop-color="#77887D"
         id="stop335" />
    </linearGradient>
  </defs>
  <path
     fill="url(#gradient_19)"
     d="m 181.14752,318.45782 c 1.86207,3.31911 3.48605,7.35378 5.01675,10.88267 l 1.34414,3.40533 c 1.54581,3.832 5.81454,12.94222 8.14657,16.16178 0.66807,1.56355 1.55824,3.84178 2.36579,5.26756 l 0.90172,0.32355 c -0.60766,1.07022 -2.6101,4.74489 -3.22309,5.53867 -9.12913,16.67911 -34.37015,34.72356 -52.59731,39.264 -4.64452,1.15734 -15.34521,4.22667 -19.64592,2.32623 l -0.24165,-0.73778 c 1.60444,-2.20178 3.64775,-2.69689 6.20099,-3.68978 24.51876,-15.37956 37.11794,-31.93423 45.98766,-59.57867 2.02554,-6.31112 4.57967,-12.58845 5.74435,-19.16356 z"
     id="path340"
     style="fill:url(#gradient_19);stroke-width:0.888641" />
  <defs
     id="defs347">
    <linearGradient
       id="gradient_20"
       gradientUnits="userSpaceOnUse"
       x1="348.785"
       y1="606.64941"
       x2="364.46423"
       y2="671.62982"
       gradientTransform="matrix(0.888393,0,0,0.888889,-156.37874,-211.04714)">
      <stop
         offset="0"
         stop-color="#8F9286"
         id="stop342" />
      <stop
         offset="1"
         stop-color="#B7BDAB"
         id="stop344" />
    </linearGradient>
  </defs>
  <path
     fill="url(#gradient_20)"
     d="m 181.14752,318.45782 c 1.86207,3.31911 3.48605,7.35378 5.01675,10.88267 l 1.34414,3.40533 -0.37668,3.34844 c -0.85285,2.45423 -1.72703,4.99112 -2.58966,7.36801 -8.13946,22.42933 -25.64613,44.02311 -48.77722,51.81778 -2.29738,0.77422 -3.83075,1.69867 -6.34934,1.92 24.51876,-15.37956 37.11794,-31.93423 45.98766,-59.57867 2.02554,-6.31112 4.57967,-12.58845 5.74435,-19.16356 z"
     id="path349"
     style="fill:url(#gradient_20);stroke-width:0.888641" />
  <path
     fill="#235466"
     d="m 187.50841,332.74582 c 1.54581,3.832 5.81454,12.94222 8.14657,16.16178 0.66807,1.56355 1.55824,3.84178 2.36579,5.26756 l 0.90172,0.32355 c -0.60766,1.07022 -2.6101,4.74489 -3.22309,5.53867 l -0.39711,-0.51289 c 0.22387,-0.73333 0.95768,-3.06311 0.77823,-3.60445 -1.40455,-4.248 -5.74702,-17.58133 -8.94879,-19.82578 z"
     id="path351"
     style="stroke-width:0.888641" />
  <path
     fill="#53979a"
     d="m 240.60677,43.30045 0.13859,1.647111 4.33092,6.32889 c 2.21032,3.232 4.50504,6.577778 7.15334,9.469334 1.40455,1.816889 1.00566,9.473779 -0.2141,11.480002 -2.63675,1.459556 -10.52746,5.168 -11.30036,7.597334 3.83164,7.677334 7.21819,15.242669 10.7309,23.063999 -3.71437,0.072 -7.56112,0.22489 -11.25683,-0.0275 l -0.3216,0.32267 c -3.4132,-0.29067 -8.4042,-0.17867 -11.93734,-0.20356 2.92815,-5.225779 8.38022,-18.323558 10.2334,-24.153781 -4.00398,-2.435556 -8.05594,-4.79289 -12.15232,-7.069334 -0.19634,-3.217779 -0.10128,-7.202668 -0.11194,-10.48178 4.38333,-4.927111 6.99432,-8.546667 10.73267,-13.893335 l 1.06874,-1.997333 c 1.19222,0.186666 1.15225,0.251555 2.29383,-0.07822 z"
     id="path353"
     style="stroke-width:0.888641" />
  <path
     fill="#123c52"
     d="m 240.60677,43.30045 0.13859,1.647111 4.33092,6.32889 c 2.21032,3.232 4.50504,6.577778 7.15334,9.469334 -3.54558,0.825778 -4.01376,1.091556 -7.24484,2.724445 -2.34892,0.06578 -2.88106,0.119111 -4.57168,-1.072889 l 0.12527,1.515556 -0.30827,6.981334 c -0.39712,1.388445 -0.57035,2.164445 -0.81733,3.591112 l 0.17946,3.4 -1.42854,0.939556 c -4.00398,-2.435556 -8.05594,-4.79289 -12.15232,-7.069334 -0.19634,-3.217779 -0.10128,-7.202668 -0.11194,-10.48178 4.38333,-4.927111 6.99432,-8.546667 10.73267,-13.893335 l 1.06874,-1.997333 c 1.19222,0.186666 1.15225,0.251555 2.29383,-0.07822 z"
     id="path355"
     style="stroke-width:0.888641" />
  <path
     fill="#93c5b2"
     d="m 245.07628,51.276451 c 2.21032,3.232 4.50504,6.577778 7.15334,9.469334 -3.54558,0.825778 -4.01376,1.091556 -7.24484,2.724445 -2.34892,0.06578 -2.88106,0.119111 -4.57168,-1.072889 l -0.0284,-6.456001 c 2.73447,-1.600889 3.1458,-1.867555 4.6916,-4.664889 z"
     id="path357"
     style="stroke-width:0.888641" />
  <path
     fill="#417d87"
     d="m 240.60677,43.30045 0.13859,1.647111 4.33092,6.32889 c -1.5458,2.797334 -1.95713,3.064 -4.6916,4.664889 l 0.0284,6.456001 0.12527,1.515556 -2.25563,-0.537778 c 1.52803,-4.166223 -0.0595,-6.192001 -2.13925,-9.779557 0.91771,-2.636445 1.60444,-3.789334 0.48861,-6.215112 l 1.06874,-1.997333 c 1.19222,0.186666 1.15225,0.251555 2.29383,-0.07822 z"
     id="path359"
     style="stroke-width:0.888641" />
  <path
     fill="#84c0a7"
     d="m 240.74536,44.947561 4.33092,6.32889 c -1.5458,2.797334 -1.95713,3.064 -4.6916,4.664889 0.0355,-3.766222 0.0462,-7.226667 0.36068,-10.993779 z"
     id="path361"
     style="stroke-width:0.888641" />
  <path
     fill="#53979a"
     d="m 236.14349,53.595562 c 2.07973,3.587556 3.66728,5.613334 2.13925,9.779557 -1.79722,0.283556 -4.05907,0.08356 -5.91759,0.0062 -1.65507,-0.919111 -1.76079,-0.612444 -2.40488,-1.984889 0.8271,-1.715556 4.58233,-5.733334 6.18322,-7.80089 z"
     id="path363"
     style="stroke-width:0.888641" />
  <path
     fill="#336a78"
     d="m 232.36515,63.381341 c 1.85852,0.07733 4.12037,0.277334 5.91759,-0.0062 l 2.25563,0.537778 -0.30827,6.981334 c -0.39712,1.388445 -0.57035,2.164445 -0.81733,3.591112 -0.94436,-1.952001 -5.51425,-8.593779 -7.04762,-11.104002 z"
     id="path365"
     style="stroke-width:0.888641" />
  <path
     fill="#235466"
     d="m 239.59223,77.885343 c 1.01632,6.653334 -0.51527,17.626669 0.71604,24.153777 2.33115,0.12178 5.20688,0.35734 7.47494,0.20889 -2.34358,0.0836 -5.33391,0.12 -7.59398,0.61156 l -0.3216,0.32267 c -3.4132,-0.29067 -8.4042,-0.17867 -11.93734,-0.20356 2.92815,-5.225779 8.38022,-18.323558 10.2334,-24.153781 z"
     id="path367"
     style="stroke-width:0.888641" />
  <path
     fill="#64a9a4"
     d="m 240.71516,79.823121 c 3.83164,7.677334 7.21819,15.242669 10.7309,23.063999 -3.71437,0.072 -7.56112,0.22489 -11.25683,-0.0275 2.26007,-0.49156 5.2504,-0.528 7.59398,-0.61156 -2.26806,0.14845 -5.14379,-0.0871 -7.47494,-0.20889 0.39623,-7.380442 -0.38023,-14.68622 0.40689,-22.215999 z"
     id="path369"
     style="stroke-width:0.888641" />
  <path
     fill="#64a9a4"
     d="m 252.22962,60.745785 c 1.40455,1.816889 1.00566,9.473779 -0.2141,11.480002 -2.37468,-2.077334 -4.44641,-4.132445 -6.69138,-6.352001 0.048,-0.896889 -0.15724,-1.510222 -0.33936,-2.403556 3.23108,-1.632889 3.69926,-1.898667 7.24484,-2.724445 z"
     id="path371"
     style="stroke-width:0.888641" />
  <path
     fill="#64a9a4"
     d="m 240.4131,62.397341 c 1.69062,1.192 2.22276,1.138667 4.57168,1.072889 0.18212,0.893334 0.38733,1.506667 0.33936,2.403556 l -0.29583,0.309333 c -1.39123,1.476445 -3.40344,4.684445 -4.60721,4.802668 l -0.191,-0.09156 0.30827,-6.981334 z"
     id="path373"
     style="stroke-width:0.888641" />
  <path
     fill="#336a78"
     d="m 239.28218,0 c 1.23842,5.2888895 1.38589,18.144002 1.01632,23.689781 0.0782,5.993778 -0.0515,13.768001 0.30827,19.610669 l -0.6121,2.004445 c -1.14158,0.329777 -1.10161,0.264888 -2.29383,0.07822 0.68851,-11.296891 0.94081,-23.464892 1.14247,-34.81156 C 238.88951,6.8080009 238.95703,3.7760005 239.28218,0 Z"
     id="path375"
     style="stroke-width:0.888641" />
  <path
     fill="#64a9a4"
     d="m 239.28218,0 c 1.23842,5.2888895 1.38589,18.144002 1.01632,23.689781 -0.61388,-4.529779 0.088,-10.673779 -0.76135,-14.7742243 l -0.69384,1.6560003 C 238.88951,6.8080009 238.95703,3.7760005 239.28218,0 Z"
     id="path377"
     style="stroke-width:0.888641" />
</svg>
